<?xml version="1.0" encoding="utf-8"?>
<!-- Generator: Adobe Illustrator 21.1.0, SVG Export Plug-In . SVG Version: 6.00 Build 0)  -->
<!DOCTYPE svg PUBLIC "-//W3C//DTD SVG 1.1//EN" "http://www.w3.org/Graphics/SVG/1.1/DTD/svg11.dtd">
<svg version="1.1" id="Laag_1" xmlns="http://www.w3.org/2000/svg" xmlns:xlink="http://www.w3.org/1999/xlink" x="0px" y="0px"
	 viewBox="0 0 742.3 195" style="enable-background:new 0 0 742.3 195;" xml:space="preserve">
<style type="text/css">
	.st0{fill:#FFCACA;}
	.st1{fill:#FFE2BB;}
	.st2{fill:#333333;}
	.st3{opacity:0.2;}
	.st4{fill:#FFFFFF;}
	.st5{fill:#A07253;}
	.st6{fill:#BBFF96;}
	.st7{fill:#FF5069;}
	.st8{opacity:0.15;}
	.st9{opacity:0.4;}
	.st10{fill:#CFE8F1;}
	.st11{fill:#8C8C8C;}
	.st12{fill:#FFDE52;}
	.st13{fill:#FFA655;}
	.st14{fill:#7FFF7B;}
</style>
<g>
	<path class="st0" d="M380.3,70.3c-1.1-1.3-2.2-2.6-3.4-3.8c-1.2-1.2-2.5-2.3-3.8-3.4l-1.5-1.2l17.7-17.6l9.9,9.9l-17.6,17.6
		L380.3,70.3z"/>
	<g>
		<path class="st1" d="M349.3,122.7c-9.8,0-19.2-9.3-19.3-9.4c-7.8-8.3-13.6-20.9-4.9-29.6c4.1-4.1,7.8-4.8,11.1-5.4
			c2.7-0.5,5.2-1,7.4-3.2c1.2-1.2,2.1-2.7,2.5-4.3c0.8-2.2,1.7-4.8,6.1-9.2c2.2-2.4,5.3-3.7,8.5-3.8c3.4,0,8.9,1.5,16.1,8.7
			c2.9,2.8,5.3,6,7.1,9.5c2.8,5.9,2,10.9-2.2,15.1c-4.3,4.3-7,5.3-9.1,6.1c-1.7,0.5-3.2,1.4-4.4,2.6c-2.2,2.2-2.7,4.7-3.2,7.3
			c-0.6,3.4-1.4,7.1-5.4,11.2C357,121.1,353.2,122.7,349.3,122.7z"/>
		<path class="st0" d="M357.2,96.6c-5.7,0-10.4-4.6-10.5-10.3c0-2.8,1.1-5.5,3.1-7.5c1.9-2,4.6-3.1,7.4-3.1
			c5.8-0.1,10.5,4.5,10.6,10.3c0.1,5.8-4.5,10.5-10.3,10.6C357.4,96.6,357.3,96.6,357.2,96.6L357.2,96.6z"/>
		<path class="st1" d="M401.6,55.2c-0.9,0-1.8-0.3-2.5-1l-9.9-9.9c-1.3-1.3-1.4-3.3-0.3-4.7l0.2-0.2l12.4-7.4
			c0.8-0.6,1.7-0.9,2.6-0.9c0.9,0,1.7,0.3,2.3,1l4.9,4.9c1.2,1.2,1.2,2.9,0,4.9L404,54.3l-0.2,0.2C403.2,55,402.4,55.3,401.6,55.2z"
			/>
		<g id="stroke-2">
			<path d="M349.3,124.4c-8.1,0-16.2-5.6-20.4-9.8c-6.4-6.4-15.6-21.3-4.9-32c4.4-4.4,8.6-5.2,12-5.9c2.6-0.5,4.7-0.9,6.5-2.7
				c1-1.1,1.8-2.4,2.2-3.8c0.8-2.3,1.9-5.2,6.5-9.8c4.7-4.7,10.5-5.5,17-2.5c1.2,0.5,2.3,1.2,3.3,1.9l15.6-15.6c-1-2-0.6-4.4,1-5.9
				l0.3-0.3l12.3-7.4c2.5-1.7,5.2-1.6,7,0.3l4.9,4.9c1.2,1.2,2.3,3.5,0.3,7l0,0l-7.7,12.6c-1.6,1.5-3.9,1.9-5.9,1l-15.6,15.6
				c0.7,1.1,1.3,2.2,1.9,3.3c3,6.5,2.2,12.4-2.5,17c-4.6,4.6-7.5,5.6-9.8,6.5c-1.4,0.4-2.7,1.1-3.8,2.2c-1.8,1.8-2.2,3.9-2.7,6.5
				c-0.6,3.4-1.4,7.5-5.9,12l0,0C357.9,122.7,353.7,124.4,349.3,124.4z M360.8,59.5c-2.8,0-5.4,1.2-7.3,3.3
				c-4.1,4.1-4.9,6.4-5.7,8.5c-0.6,1.9-1.6,3.6-3,5c-2.6,2.6-5.5,3.1-8.3,3.7c-3.2,0.6-6.5,1.2-10.2,4.9c-11,11,4.3,26.5,4.9,27.2
				s16.2,15.9,27.2,4.9l0,0c3.7-3.7,4.3-7,4.9-10.2c0.5-2.8,1.1-5.7,3.7-8.3c1.4-1.4,3.1-2.4,5-3c2.1-0.8,4.5-1.6,8.5-5.7
				c3.7-3.7,4.3-8,1.8-13.2c-1.7-3.4-4-6.4-6.8-9.1c-2.6-2.7-5.7-5-9.1-6.8C364.8,60.1,362.8,59.6,360.8,59.5L360.8,59.5z
				 M374.2,61.8c1.4,1.1,2.7,2.3,3.9,3.5c1.3,1.2,2.4,2.5,3.6,3.9l5.2-5.2l-3.7-3.7c-0.6-0.7-0.6-1.8,0.1-2.4c0.6-0.6,1.6-0.6,2.3,0
				l3.7,3.7l2.5-2.5l-3.7-3.7c-0.6-0.7-0.6-1.8,0.1-2.4c0.6-0.6,1.6-0.6,2.3,0l3.7,3.7l2.5-2.5l-7.5-7.5L374.2,61.8z M390.3,40.8
				c-0.6,0.7-0.5,1.7,0.1,2.4l9.9,9.9c0.7,0.6,1.7,0.7,2.4,0.1l7.3-12.1c1.1-2,0.5-2.6,0.3-2.9l-4.9-4.9c-0.2-0.2-1-1-2.8,0.2
				L390.3,40.8z M354.7,110.2c-0.5,0-0.9-0.2-1.2-0.5l-18.5-18.5c-0.7-0.6-0.8-1.7-0.1-2.4c0.6-0.7,1.7-0.8,2.4-0.1
				c0,0,0.1,0.1,0.1,0.1l18.5,18.5c0.7,0.7,0.7,1.7,0,2.4C355.6,110,355.2,110.2,354.7,110.2L354.7,110.2z M357.2,98.4
				c-6.7,0-12.1-5.4-12.1-12.2c0-6.7,5.4-12.1,12.2-12.1c6.7,0,12.1,5.4,12.1,12.2c0,3.2-1.3,6.3-3.6,8.6l0,0
				C363.5,97.2,360.4,98.4,357.2,98.4z M357.2,77.5c-4.8,0-8.7,3.9-8.7,8.8s3.9,8.7,8.8,8.7c4.8,0,8.7-3.9,8.7-8.8
				c0-2.3-0.9-4.5-2.6-6.2C361.8,78.4,359.5,77.5,357.2,77.5z"/>
		</g>
	</g>
</g>
<g>
	<circle class="st2" cx="262.2" cy="88.6" r="38.1"/>
	<g class="st3">
		<path d="M284.8,88.6c0-12.5-10.1-22.6-22.6-22.6c-12.5,0-22.6,10.1-22.6,22.6s10.1,22.6,22.6,22.6c0,0,0,0,0,0l0,0
			C274.7,111.1,284.8,101,284.8,88.6z"/>
	</g>
	<path class="st0" d="M277.8,88.6c0-8.6-6.9-15.5-15.5-15.5c-8.6,0-15.5,6.9-15.5,15.5s6.9,15.5,15.5,15.5
		C270.8,104.1,277.8,97.2,277.8,88.6L277.8,88.6z"/>
	<g id="stroke_lights" class="st3">
		<path class="st4" d="M262.2,119.6c-17.1,0-31-13.9-31-31c0-0.8,0.7-1.4,1.4-1.4c0.8,0,1.4,0.6,1.4,1.4c0,15.6,12.6,28.2,28.2,28.2
			c0.8,0,1.4,0.6,1.5,1.4C263.7,118.9,263.1,119.6,262.2,119.6C262.3,119.6,262.3,119.6,262.2,119.6L262.2,119.6L262.2,119.6z
			 M282.7,107.3c-0.8,0-1.4-0.6-1.4-1.4c0-0.3,0.1-0.7,0.3-0.9c1.5-1.8,2.8-3.8,3.8-6c0.3-0.7,1.2-1,1.9-0.7c0.7,0.3,1,1.1,0.7,1.8
			c0,0,0,0,0,0.1c-1.1,2.4-2.5,4.7-4.2,6.7C283.5,107.1,283.1,107.3,282.7,107.3z M289,90c-0.8,0-1.4-0.6-1.4-1.4c0,0,0,0,0,0l0,0
			c0-14-11.4-25.4-25.4-25.4c-0.8,0-1.4-0.6-1.4-1.4c0-0.8,0.6-1.4,1.4-1.4h0.1c15.6,0,28.2,12.6,28.2,28.2
			C290.5,89.4,289.8,90,289,90L289,90z"/>
	</g>
	<g id="stroke-3">
		<path d="M262.2,128.1c-21.8,0-39.5-17.7-39.5-39.5s17.7-39.5,39.5-39.5s39.5,17.7,39.5,39.5S284.1,128.1,262.2,128.1z M262.2,51.9
			c-20.3,0-36.7,16.4-36.7,36.7s16.4,36.7,36.7,36.7s36.7-16.4,36.7-36.7c0,0,0,0,0,0l0,0C298.9,68.3,282.5,51.9,262.2,51.9z
			 M262.2,105.5c-9.3,0-16.9-7.6-16.9-16.9s7.6-16.9,16.9-16.9c9.3,0,16.9,7.6,16.9,16.9c0,0,0,0,0,0l0,0
			C279.2,97.9,271.6,105.5,262.2,105.5L262.2,105.5z M262.2,74.5c-7.8,0-14.1,6.3-14.1,14.1s6.3,14.1,14.1,14.1
			c7.8,0,14.1-6.3,14.1-14.1C276.3,80.8,270,74.5,262.2,74.5C262.2,74.5,262.2,74.5,262.2,74.5z M262.2,94.2c-3.1,0-5.6-2.5-5.6-5.6
			s2.5-5.6,5.6-5.6c3.1,0,5.6,2.5,5.6,5.6C267.9,91.7,265.4,94.2,262.2,94.2L262.2,94.2z M262.2,85.8c-1.6,0-2.8,1.3-2.8,2.8
			c0,1.6,1.3,2.8,2.8,2.8s2.8-1.3,2.8-2.8l0,0C265.1,87,263.8,85.8,262.2,85.8L262.2,85.8z"/>
	</g>
</g>
<title>Tekengebied 1</title>
<g>
	<path class="st5" d="M212.3,113.2c-0.9,0.7-2.2,0.8-3.2,0.3l-26.2-7.5l2.3-1.8c0.9-0.7,1.5-1.7,1.9-2.8c0.4-1,0.6-2.2,0.5-3.3
		l-0.4-2.9l24.4,12.7c0.7,0.3,1.3,0.8,1.6,1.5c0.3,0.8,0.3,1.7,0,2.5C213.1,112.3,212.8,112.8,212.3,113.2z"/>
	<path class="st0" d="M163.6,108.5c-2.6,1.1-5.3,1.7-8,2l-2.3,0.1l0.8-2.2c0.5-1.3-0.4-2.5-1.7-4c-1.2-1.4-2.4-2.7-1.8-4.1
		c0.1-0.4,0.4-0.7,0.7-0.9c1-0.6,2.2-0.9,3.4-0.9c1.2,0,2.4-0.3,3.4-0.9c0.3-0.2,0.5-0.5,0.6-0.9c0.5-1.4-0.4-2.6-1.7-4
		c-1.1-1.2-2.3-2.6-1.8-4c0.1-0.4,0.4-0.7,0.7-0.9c1-0.6,2.2-0.9,3.4-0.9c1.2,0,2.4-0.3,3.4-0.9c0.3-0.2,0.5-0.5,0.6-0.9
		c0.5-1.4-0.4-2.6-1.8-4.1c-1.2-1.3-2.4-2.6-1.7-4.1c0.1-0.3,0.4-0.6,0.6-0.8c1-0.6,2.2-0.9,3.4-0.9c1.2,0,2.4-0.3,3.4-0.9
		c0.3-0.2,0.5-0.5,0.6-0.8l0.9-2.2l1.6,1.7c1.9,2,3.4,4.4,4.5,6.9l0.3,0.6l-11,27.6L163.6,108.5z"/>
	<path class="st1" d="M153.4,109.3c-0.7,0.5-1.5,0.7-2.4,0.8l-0.2,0l-0.2,0c-1.2-0.2-2.3-0.6-3.4-1c-2.7-1.1-5.2-2.7-7.3-4.7
		l-0.7-0.7l14.6-36.8l1,0c2.9,0,5.8,0.5,8.5,1.6c1.1,0.4,2.1,0.9,3.1,1.5l0.2,0.1l0.2,0.2c0.8,0.9,1.6,2,1.1,3.3
		c-0.1,0.4-0.4,0.7-0.7,0.9c-0.7,0.6-1.8,0.7-3.4,0.9c-1.2,0-2.4,0.3-3.4,0.9c-0.3,0.2-0.5,0.5-0.6,0.9c-0.5,1.3,0.4,2.5,1.7,4
		c1.2,1.4,2.3,2.6,1.8,4.1c-0.1,0.4-0.4,0.7-0.7,0.9c-1,0.6-2.2,0.9-3.4,0.9c-1.2,0-2.4,0.3-3.4,0.9c-0.3,0.2-0.5,0.5-0.6,0.9
		c-0.5,1.4,0.4,2.5,1.8,4.1c1.2,1.4,2.3,2.6,1.8,4c-0.1,0.4-0.4,0.7-0.7,0.9c-1,0.6-2.2,0.9-3.4,0.9c-1.2,0-2.4,0.3-3.4,0.9
		c-0.3,0.2-0.5,0.5-0.6,0.9c-0.5,1.4,0.4,2.6,1.8,4.1c1.1,1.2,2.3,2.6,1.7,4.1C153.9,108.8,153.7,109.1,153.4,109.3z"/>
	<path class="st6" d="M185.2,104.2c-1.4,1.1-3.2,1.4-4.9,1.1l-1.1-0.3c-3.6-1.4-7-0.1-11.5,1.8l-3.4,1.5l11-27.6l1.5,3.5
		c1.9,4.5,3.5,7.8,6.9,9.1l0.9,0.5c0.7,0.4,1.3,0.9,1.8,1.5c1.5,1.7,1.9,4.1,0.9,6.2C186.8,102.5,186.1,103.4,185.2,104.2z
		 M139.1,103.8l14.8-37.1l-2.7,0.5c-11.9,2.2-19.7,13.7-17.5,25.5c0.6,3.2,1.9,6.2,3.8,8.8L139.1,103.8z"/>
	<g id="stroke2">
		<path d="M213.3,114.4c-0.7,0.5-1.5,0.8-2.3,0.9c-0.8,0.1-1.6,0-2.3-0.3l-29-8.3c-0.4-0.1-0.8-0.2-1.2-0.4l0,0
			c-3.3-1.2-6.7,0.3-10.7,2.1c-5.5,2.5-12.4,5.6-21.2,2.1c-12-4.8-17.9-18.4-13.1-30.4c4.8-12,18.4-17.9,30.4-13.1
			c7.5,3,10.7,8.5,12.9,13.5l0.1,0.1l-0.1,0.1c0.4,0.8,0.7,1.6,1,2.4c1.7,4.1,3.1,7.6,6.4,8.9l0,0c0.4,0.2,0.8,0.4,1.1,0.6
			l26.9,13.9c0.7,0.3,1.3,0.7,1.7,1.3c1.2,1.3,1.4,3.1,0.7,4.7C214.4,113.2,213.9,113.9,213.3,114.4z M186.2,105.3l23.5,6.7
			c0.7,0.4,1.7,0.2,2.1-0.5c0.1-0.1,0.1-0.2,0.1-0.3c0.4-0.7,0.1-1.6-0.6-2c-0.1,0-0.2-0.1-0.3-0.1l-21.8-11.3
			C189.4,100.7,188.3,103.5,186.2,105.3z M180.6,103.7c2.2,0.6,4.5-0.7,5.2-2.9c0.8-1.5,0.5-3.4-0.6-4.7c-0.4-0.4-0.9-0.8-1.4-1.1
			l-0.8-0.4c-4.1-1.6-5.9-5.6-7.7-9.9l-8.2,20.7c4.3-1.9,8.3-3.6,12.6-1.9L180.6,103.7z M155.5,108.9c2.6-0.2,5.1-0.8,7.5-1.9
			l10.5-26.4c-1-2.4-2.5-4.6-4.2-6.5c-0.9,2.3-3.5,2.5-5.3,2.7c-1.5,0.1-2.6,0.3-2.8,0.8s0.5,1.4,1.5,2.5c1.2,1.4,3,3.3,2,5.6
			c-0.9,2.3-3.5,2.6-5.4,2.7c-1.5,0.1-2.6,0.3-2.8,0.8s0.5,1.4,1.5,2.5c1.3,1.4,3,3.3,2,5.6c-0.9,2.3-3.5,2.5-5.3,2.7
			c-1.5,0.1-2.6,0.3-2.8,0.8c-0.2,0.5,0.5,1.4,1.5,2.5C154.7,104.7,156.4,106.6,155.5,108.9L155.5,108.9z M150.8,108.6
			c1.4-0.2,1.7-0.4,1.8-0.7c0.2-0.5-0.5-1.4-1.5-2.5c-1.2-1.4-3-3.3-2-5.6c0.9-2.3,3.5-2.6,5.4-2.7c1.5-0.1,2.6-0.3,2.8-0.8
			c0.2-0.5-0.5-1.4-1.5-2.5c-1.2-1.4-3-3.3-2-5.6c0.9-2.3,3.5-2.5,5.3-2.7c1.5-0.1,2.6-0.3,2.8-0.8c0.2-0.5-0.5-1.4-1.5-2.5
			c-1.2-1.4-3-3.3-2-5.6c0.9-2.3,3.5-2.6,5.4-2.7c1.5-0.1,2.6-0.3,2.8-0.8c0.1-0.3,0.1-0.7-0.9-1.8c-0.9-0.6-1.9-1-2.9-1.4
			c-2.5-1-5.2-1.5-7.9-1.5L141,103.2c1.9,1.9,4.2,3.4,6.7,4.4C148.7,108,149.7,108.3,150.8,108.6L150.8,108.6z M142.5,72.7
			c-2.8,2.2-5,5.1-6.3,8.4l0,0c-2,5-1.9,10.6,0.2,15.6c0.6,1.4,1.3,2.7,2.2,3.9l12.7-32C148.2,69.3,145.1,70.7,142.5,72.7
			L142.5,72.7z"/>
	</g>
	<path class="st5" d="M197.4,132.8c0.9-0.7,1.3-1.9,1-3l-1.2-27.2l-2.3,1.8c-0.9,0.7-2,1.1-3.1,1.2c-1.1,0.2-2.3,0.1-3.3-0.3
		l-2.7-1.1l6.7,26.7c0.1,0.8,0.5,1.5,1.1,1.9c0.7,0.5,1.6,0.7,2.4,0.6C196.4,133.4,196.9,133.1,197.4,132.8z"/>
	<path class="st0" d="M204.1,84.3c1.6-2.2,2.9-4.7,3.8-7.3l0.7-2.2l-2.3,0.3c-1.4,0.2-2.3-1-3.5-2.6c-1.1-1.5-2-2.9-3.6-2.7
		c-0.4,0.1-0.7,0.2-1,0.5c-0.8,0.9-1.4,1.9-1.6,3.1c-0.3,1.2-0.8,2.3-1.6,3.1c-0.3,0.2-0.6,0.4-1,0.4c-1.5,0.2-2.4-1-3.5-2.6
		c-0.9-1.3-2-2.8-3.5-2.7c-0.4,0.1-0.8,0.2-1.1,0.4c-0.8,0.9-1.4,1.9-1.6,3.1c-0.3,1.2-0.8,2.3-1.6,3.1c-0.3,0.2-0.6,0.4-1,0.4
		c-1.4,0.2-2.4-1-3.5-2.6c-1-1.4-2-2.9-3.6-2.6c-0.3,0.1-0.7,0.2-1,0.4c-0.8,0.9-1.4,1.9-1.6,3.1c-0.3,1.2-0.8,2.2-1.7,3.1
		c-0.3,0.2-0.6,0.4-0.9,0.4l-2.3,0.4l1.3,2c1.6,2.3,3.5,4.3,5.7,6l0.5,0.4l29.4-4.3L204.1,84.3z"/>
	<path class="st1" d="M207.3,74.6c0.6-0.6,1.1-1.3,1.3-2.2l0.1-0.2l0-0.2c0-1.2,0-2.4-0.2-3.5c-0.4-2.9-1.4-5.6-2.9-8.1l-0.5-0.9
		l-39.2,5.7l-0.3,1c-0.7,2.8-0.9,5.7-0.5,8.6c0.2,1.2,0.4,2.3,0.8,3.4l0.1,0.3l0.2,0.2c0.7,1,1.6,2,2.9,1.8c0.4-0.1,0.8-0.2,1.1-0.5
		c0.7-0.6,1.1-1.5,1.6-3.1c0.3-1.2,0.9-2.2,1.7-3.1c0.3-0.2,0.6-0.4,1-0.4c1.4-0.2,2.3,0.9,3.5,2.6c1,1.5,2,2.9,3.5,2.7
		c0.4-0.1,0.8-0.2,1.1-0.4c0.8-0.9,1.4-1.9,1.6-3.1c0.3-1.2,0.8-2.3,1.6-3.1c0.3-0.2,0.6-0.4,1-0.4c1.4-0.2,2.4,1,3.5,2.6
		c1.1,1.5,2,2.8,3.5,2.6c0.4-0.1,0.8-0.2,1.1-0.5c0.8-0.9,1.4-1.9,1.6-3.1c0.3-1.2,0.8-2.3,1.6-3.1c0.3-0.2,0.6-0.4,1-0.4
		c1.4-0.2,2.4,1,3.5,2.6c0.9,1.4,2,2.9,3.6,2.6C206.6,75,207,74.8,207.3,74.6z"/>
	<path class="st6" d="M191.7,105.6c-2.2,0.5-4.5-0.4-5.8-2.3c-0.4-0.6-0.8-1.3-1-2.1l-0.3-1c-0.5-3.6-3.4-5.9-7.3-8.8l-3-2.2
		l29.4-4.3l-2.3,3c-2.9,3.9-5,6.9-4.4,10.8l0.1,1.1c0,1.8-0.8,3.4-2.2,4.6C194,105,192.9,105.5,191.7,105.6z M203.4,57.3
		c-7.9-9.2-21.7-10.2-30.9-2.3c-2.5,2.1-4.4,4.7-5.7,7.7l-1.1,2.5l39.5-5.8L203.4,57.3z"/>
	<g id="stroke1">
		<path d="M198.3,134c-0.7,0.5-1.5,0.8-2.3,1c-1.7,0.3-3.4-0.4-4.4-1.8c-0.4-0.6-0.7-1.4-0.9-2.1l-7.3-29.3
			c-0.1-0.4-0.2-0.8-0.3-1.2l0,0c-0.6-3.5-3.6-5.7-7.1-8.2c-4.9-3.6-11-8-12.4-17.4c-1.9-12.8,7-24.7,19.8-26.6
			c12.8-1.9,24.7,7,26.6,19.8l0,0l0,0c1.4,9.4-3.2,15.4-6.9,20.2c-2.7,3.5-5,6.5-4.5,9.9l0,0c0.1,0.5,0.1,1,0.1,1.5l1.4,30
			C200.2,131.4,199.6,133,198.3,134z M187.8,106.7l5.9,23.7c0.2,0.9,0.6,1.7,1.8,1.5c0.8,0,1.4-0.7,1.4-1.5c0-0.1,0-0.2,0-0.3
			l-1.1-24.5C193.5,107.2,190.5,107.6,187.8,106.7L187.8,106.7z M186.4,101c0.9,2.5,3.6,3.7,6.1,2.8c1.7-0.6,3-2.2,3.1-4.1l-0.1-1.2
			c-0.6-4.4,1.9-7.9,4.8-11.6l-22,3.2c3.8,2.7,7.3,5.4,7.9,9.9l0,0L186.4,101z M174.7,87.6l28.1-4.1c1.6-2.1,2.8-4.4,3.6-6.9
			c-2.5,0.3-3.9-1.8-5-3.3c-0.9-1.2-1.5-2.1-2.1-2c-0.6,0.1-0.9,1.1-1.4,2.5c-0.6,1.8-1.4,4.2-3.9,4.6c-2.5,0.4-3.9-1.7-5-3.3
			c-0.9-1.2-1.5-2.1-2.1-2c-0.6,0.1-0.9,1.1-1.4,2.5c-0.6,1.8-1.4,4.2-3.9,4.6c-2.5,0.4-3.9-1.7-5-3.3c-0.9-1.2-1.5-2.1-2.1-2
			s-0.9,1.1-1.4,2.5c-0.6,1.8-1.4,4.2-3.8,4.6C170.8,84.1,172.7,86,174.7,87.6z M197.2,69c0.5-0.4,1.1-0.6,1.7-0.7
			c2.5-0.4,4,1.7,5,3.3c0.9,1.2,1.5,2.1,2.1,2c0.4-0.1,0.7-0.5,1.1-1.6c0-1.1-0.1-2.2-0.2-3.3l0,0c-0.4-2.7-1.3-5.2-2.7-7.5
			L167,66.5c-0.7,2.6-0.8,5.3-0.4,8c0.2,1.1,0.4,2.1,0.7,3.2c0.9,1.2,1.2,1.3,1.5,1.3c0.6-0.1,0.9-1.1,1.4-2.5
			c0.6-1.8,1.4-4.2,3.9-4.6c2.5-0.4,4,1.7,5,3.3c0.9,1.2,1.5,2.1,2.1,2c0.6-0.1,0.9-1.1,1.4-2.5c0.6-1.8,1.4-4.2,3.9-4.6
			s4,1.7,5,3.3c0.9,1.2,1.5,2.1,2.1,2c0.6-0.1,0.9-1.1,1.4-2.5C195.4,71.3,196.1,70,197.2,69L197.2,69z M168.2,63.2l34-5
			c-7.3-8.5-20.2-9.5-28.7-2.2c-1.1,1-2.2,2.1-3,3.3C169.5,60.6,168.8,61.9,168.2,63.2L168.2,63.2z"/>
	</g>
	<path class="st7" d="M226.1,100.4c-0.7,0.5-1.6,0.4-2.1-0.3l0,0l-0.9-1.2l-1.2,0.9c-0.7,0.5-1.6,0.4-2.2-0.3
		c-0.5-0.7-0.4-1.6,0.3-2.2l0,0l1.2-0.9l-0.9-1.2c-0.5-0.7-0.4-1.6,0.3-2.2s1.6-0.4,2.2,0.3l0,0l0.9,1.2l1.2-0.9
		c0.7-0.5,1.6-0.4,2.2,0.3c0.5,0.7,0.4,1.6-0.3,2.2l-1.2,0.9l0.9,1.2C226.8,98.9,226.7,99.9,226.1,100.4L226.1,100.4z M172.8,126.8
		c-0.7,0.5-1.6,0.4-2.1-0.3l0,0l-0.9-1.2l-1.2,0.9c-0.7,0.5-1.6,0.4-2.2-0.3c-0.5-0.7-0.4-1.6,0.3-2.2l0,0l1.2-0.9l-0.9-1.2
		c-0.5-0.7-0.4-1.6,0.3-2.2c0.7-0.5,1.6-0.4,2.2,0.3l0,0l0.9,1.2l1.2-0.9c0.7-0.5,1.6-0.4,2.2,0.3s0.4,1.6-0.3,2.2l-1.2,0.9l0.9,1.2
		C173.6,125.3,173.5,126.3,172.8,126.8L172.8,126.8z M191.5,41.8c-0.7,0.5-1.6,0.4-2.1-0.3l-0.9-1.2l-1.2,0.9
		c-0.7,0.5-1.6,0.4-2.2-0.3c-0.5-0.7-0.4-1.6,0.3-2.2l1.2-0.9l-0.9-1.2c-0.5-0.7-0.4-1.6,0.3-2.2c0.7-0.5,1.6-0.4,2.2,0.3l0,0
		l0.9,1.2l1.2-0.9c0.7-0.5,1.6-0.4,2.2,0.3c0.5,0.7,0.4,1.6-0.3,2.2l-1.2,0.9l0.9,1.2C192.3,40.3,192.2,41.3,191.5,41.8L191.5,41.8z
		"/>
</g>
<path class="st7" d="M17.3,71.8c0.6-0.6,1.6-0.5,2.2,0.1c0,0,0,0,0,0l0,0l1,1.1l1.1-1c0.6-0.6,1.6-0.5,2.2,0.1
	c0.5,0.6,0.5,1.6-0.1,2.1l-1.1,1l1,1.1c0.6,0.6,0.5,1.6-0.1,2.2c-0.6,0.6-1.6,0.5-2.2-0.1c0,0,0,0,0,0l-1-1.1l-1.1,1
	c-0.6,0.6-1.6,0.5-2.2-0.1c-0.5-0.6-0.5-1.6,0.1-2.1l1.1-1l-1-1.1C16.6,73.4,16.6,72.4,17.3,71.8C17.3,71.8,17.3,71.8,17.3,71.8
	L17.3,71.8z M68.7,42c0.6-0.6,1.6-0.5,2.2,0.1c0,0,0,0,0,0l0,0l1,1.1l1.1-1c0.6-0.6,1.6-0.5,2.2,0.1c0.6,0.6,0.5,1.6-0.1,2.2
	c0,0,0,0,0,0l0,0l-1.1,1l1,1.1c0.6,0.6,0.5,1.6-0.1,2.2c-0.6,0.5-1.6,0.5-2.1-0.1l0,0l-1-1.1l-1.1,1c-0.6,0.6-1.6,0.5-2.2-0.1
	c-0.6-0.6-0.5-1.6,0.1-2.2c0,0,0,0,0,0l1.1-1l-1-1.1C68,43.5,68.1,42.6,68.7,42C68.7,42,68.7,42,68.7,42L68.7,42z M55.5,128
	c0.6-0.6,1.6-0.5,2.2,0.1l1,1.1l1.1-1c0.6-0.6,1.6-0.5,2.2,0.1c0.6,0.6,0.5,1.6-0.1,2.2c0,0,0,0,0,0l-1.1,1l1,1.1
	c0.6,0.6,0.5,1.6-0.1,2.2c-0.6,0.6-1.6,0.5-2.2-0.1c0,0,0,0,0,0l-1-1.1l-1.1,1c-0.6,0.6-1.6,0.5-2.2-0.1c-0.6-0.6-0.5-1.6,0.1-2.2
	c0,0,0,0,0,0l1.1-1l-1-1.1C54.9,129.6,54.9,128.6,55.5,128C55.5,128,55.5,128,55.5,128L55.5,128z"/>
<g>
	<path class="st0" d="M277,109.3c0,0,1.8-6.8,8.5-5l81.2,21.2c0,0,6.8,1.8,5,8.5l-10.6,40.6c0,0-1.8,6.8-8.5,5l-81.2-21.2
		c0,0-6.8-1.8-5-8.5L277,109.3z"/>
	<g>
		
			<rect x="299.9" y="102.2" transform="matrix(0.2528 -0.9675 0.9675 0.2528 99.0649 415.5157)" class="st4" width="37.3" height="82.7"/>
		<path d="M283.7,115.8l79,20.6l-9.2,35l-79-20.6L283.7,115.8 M282.9,114.4l-9.7,37.2l81.2,21.2l9.7-37.2L282.9,114.4L282.9,114.4z"
			/>
	</g>
	<g class="st8">
		<path class="st4" d="M284.2,116.5l10.1,2.7l-8,30.4l-10.1-2.7L284.2,116.5z M299.9,153.2l16.9,4.4l8-30.4l-16.9-4.4L299.9,153.2z
			 M330.3,161.1l13.5,3.5l8-30.4l-13.5-3.5L330.3,161.1z"/>
	</g>
	<g class="st9">
		
			<rect x="311.8" y="117.7" transform="matrix(0.253 -0.9675 0.9675 0.253 80.3879 423.4935)" class="st0" width="5.2" height="83.9"/>
	</g>
	<g id="base">
		<path d="M352.1,181.3L271,160.1c-2.9-0.8-8-4-6.2-10.7l10.6-40.6c0.8-2.9,4-8,10.7-6.2l81.2,21.2c2.9,0.8,8,4,6.2,10.7l-10.6,40.6
			C362,178,358.8,183,352.1,181.3z M278.7,109.7l-10.6,40.6c-0.8,2.6,0.6,5.4,3.2,6.3c0.2,0.1,0.3,0.1,0.5,0.1l81.2,21.2
			c2.6,0.8,5.4-0.6,6.3-3.2c0.1-0.2,0.1-0.3,0.1-0.5l10.6-40.6c0.8-2.6-0.6-5.4-3.2-6.3c-0.2-0.1-0.3-0.1-0.5-0.1L285.1,106
			c-2.6-0.8-5.4,0.6-6.3,3.2C278.8,109.4,278.8,109.5,278.7,109.7z M355.6,175l-84.6-22.1l10.6-40.6l84.6,22.1L355.6,175z
			 M275.3,150.4l77.8,20.3l8.8-33.8l-77.8-20.3L275.3,150.4z"/>
	</g>
	<g id="key">
		<path d="M350.8,152l-6.8-1.8l4.4-16.9l6.8,1.8L350.8,152z M337.2,148.5l-6.8-1.8l4.4-16.9l6.8,1.8L337.2,148.5z M323.7,144.9
			l-6.8-1.8l4.4-16.9l6.8,1.8L323.7,144.9z M306.8,140.5l-6.8-1.8l4.4-16.9l6.8,1.8L306.8,140.5z M293.3,137l-6.8-1.8l4.4-16.9
			l6.8,1.8L293.3,137z"/>
	</g>
</g>
<g>
	<path class="st1" d="M443.5,150.2c-20.8,1.5-37.5-2.3-37.9-8.4l-0.4-6.3l2.4,1.7c5.6,4,19.9,5.9,35.4,4.8s29.4-5,34.4-9.7l2.1-2
		l0.4,6.3C480.3,142.8,464.3,148.7,443.5,150.2z"/>
	<path class="st10" d="M442.9,141.9c-18.2,1.3-34.3-1.6-37.4-6.7l-0.4-0.7l0.4-0.7c1.2-2.4,2.3-5,3.1-7.5
		c2.3-6.3,4.6-12.8,10.1-13.1c5.6-0.4,8.7,5,11.7,10.1c3.2,5.6,6.2,10.7,11.8,10.3s7.9-5.9,10.2-11.7c2.3-5.7,4.6-11.5,10.3-11.8
		c5.5-0.4,8.7,5.7,11.9,11.6c1.2,2.4,2.6,4.8,4.1,7l0.5,0.6l-0.3,0.7C476.6,135.7,461.5,140.6,442.9,141.9z"/>
	<path class="st6" d="M442.4,133.7c-5.6,0.4-8.7-5-11.7-10.2c-3.2-5.6-6.2-10.7-11.8-10.3c-5.5,0.4-7.9,6.9-10.2,13.2
		c-0.4,1.1-0.8,2.3-1.3,3.4l-2.7-0.4l-2.1-29.7l2.4,1.7c5.6,4,19.9,5.9,35.4,4.8s29.4-5,34.4-9.7l2.1-2l2.1,29.7l-2.6,0.8
		c-0.6-1.1-1.2-2.1-1.7-3.2c-3.3-6.2-6.4-12-11.9-11.6c-5.7,0.4-7.9,5.9-10.2,11.7C450.3,127.6,448,133.3,442.4,133.7z"/>
	<path class="st0" d="M440.4,106.2c-20.8,1.5-37.5-2.3-37.9-8.4s15.6-12.1,36.4-13.6s37.5,2.3,37.9,8.4S461.3,104.7,440.4,106.2z"/>
	<g class="st3">
		<path class="st1" d="M440,99.3c-21,1.5-32-2.5-33.4-4.6c1.2-2.3,11.5-7.7,32.5-9.2s32,2.5,33.4,4.6
			C471.3,92.4,460.9,97.8,440,99.3z"/>
	</g>
	<g id="stroke">
		<path d="M443.6,151.6c-18.7,1.3-38.8-1.7-39.4-9.7l-3.1-44c-0.6-8,19-13.8,37.7-15.1s38.8,1.7,39.4,9.7l3.1,44
			C481.8,144.6,462.3,150.3,443.6,151.6z M406.7,138.3l0.2,3.4c0.3,4.6,15.4,8.6,36.4,7.1s35.4-7.6,35.1-12.1l-0.2-3.4
			c-5.7,5.4-20.8,9-35.3,10S413.1,142.8,406.7,138.3L406.7,138.3z M406.7,134.5c2.4,4.1,16.7,7.4,36.1,6s33-6.6,34.9-11
			c-1.6-2.3-3-4.7-4.2-7.2c-3.1-5.8-5.9-11.2-10.6-10.9c-4.8,0.3-6.9,5.5-9.1,10.9c-2.4,6-4.9,12.2-11.4,12.6s-9.9-5.3-13.1-10.9
			c-2.9-5.1-5.7-9.9-10.5-9.6c-4.6,0.3-6.7,6.1-8.9,12.2C409.1,129.5,408,132,406.7,134.5L406.7,134.5z M418.7,111.8
			c6.5-0.5,9.9,5.3,13.1,10.9c2.9,5.1,5.7,9.9,10.5,9.5s6.9-5.5,9.1-10.9c2.4-6,4.9-12.2,11.4-12.6c6.4-0.4,9.8,6.1,13.2,12.3
			c0.6,1.1,1.1,2.1,1.7,3.2l-1.9-26.8c-5.7,5.4-20.8,9-35.3,10s-29.9-0.5-36.3-5.1l1.9,26.8c0.4-1.1,0.9-2.3,1.3-3.4
			C409.8,119.2,412.3,112.3,418.7,111.8L418.7,111.8z M439,85.5c-21.1,1.5-35.4,7.6-35.1,12.1s15.4,8.6,36.4,7.1s35.4-7.6,35.1-12.1
			S460.1,84.1,439,85.5L439,85.5z"/>
	</g>
</g>
<circle class="st2" cx="239.8" cy="64.5" r="4.2"/>
<path class="st7" d="M311,15.9c-0.8-0.1-1.4-0.9-1.3-1.7c0,0,0,0,0,0l0,0l0.2-1.5l-1.5-0.2c-0.8-0.1-1.5-0.8-1.4-1.7
	c0.1-0.8,0.8-1.5,1.7-1.4c0,0,0,0,0,0l0,0l1.5,0.2l0.2-1.5c0.1-0.8,0.9-1.4,1.7-1.3c0.8,0.1,1.4,0.8,1.3,1.7l0,0l-0.2,1.5l1.5,0.2
	c0.8,0.1,1.4,0.9,1.3,1.7c-0.1,0.8-0.8,1.4-1.7,1.3l-1.5-0.2l-0.2,1.5C312.6,15.4,311.9,16,311,15.9C311,15.9,311,15.9,311,15.9
	L311,15.9z"/>
<path class="st7" d="M132.5,111.1c-0.8,0.1-1.6-0.4-1.8-1.3l0,0l-0.3-1.5l-1.5,0.3c-0.8,0.1-1.6-0.4-1.7-1.3
	c-0.1-0.8,0.4-1.6,1.2-1.7l1.5-0.3l-0.3-1.5c-0.2-0.8,0.4-1.6,1.2-1.8c0.8-0.2,1.6,0.4,1.8,1.2l0,0l0.3,1.5l1.5-0.3
	c0.8-0.1,1.6,0.4,1.7,1.3c0.1,0.8-0.4,1.6-1.2,1.7l-1.5,0.3l0.3,1.5C133.9,110.2,133.4,111,132.5,111.1L132.5,111.1z"/>
<path class="st7" d="M477.5,100.5c-0.8-0.4-1-1.3-0.7-2.1l0,0l0.7-1.4l-1.4-0.7c-0.8-0.4-1-1.3-0.7-2.1s1.3-1,2.1-0.7l0,0l1.4,0.7
	l0.7-1.4c0.4-0.7,1.3-1,2.1-0.6c0.7,0.4,1,1.3,0.7,2.1l-0.7,1.4l1.4,0.7c0.7,0.4,1,1.3,0.6,2.1c-0.4,0.7-1.3,1-2.1,0.7l-1.4-0.7
	l-0.7,1.4C479.1,100.6,478.2,100.9,477.5,100.5L477.5,100.5z"/>
<path class="st7" d="M424.4,61c-0.8,0-1.5-0.8-1.5-1.6v0l0.1-1.5l-1.5-0.1c-0.8,0-1.5-0.8-1.5-1.6c0-0.8,0.7-1.5,1.6-1.5l1.5,0.1
	l0.1-1.5c0-0.8,0.7-1.5,1.6-1.5s1.5,0.7,1.5,1.6l0,0v0l-0.1,1.5l1.5,0.1c0.8,0,1.5,0.8,1.5,1.6c0,0.8-0.7,1.5-1.6,1.5L426,58
	l-0.1,1.5C425.9,60.4,425.2,61,424.4,61L424.4,61z"/>
<path class="st7" d="M626.5,8.7c0.4,0.8,0,1.7-0.7,2l0,0l-1.4,0.7l0.7,1.4c0.4,0.8,0,1.7-0.7,2c-0.8,0.4-1.7,0-2-0.7l0,0l0,0
	l-0.7-1.4l-1.4,0.7c-0.8,0.4-1.7,0-2-0.7c-0.3-0.8,0-1.7,0.7-2l1.4-0.7l-0.7-1.4c-0.4-0.8,0-1.7,0.7-2c0.8-0.4,1.7,0,2,0.7l0.7,1.4
	l1.4-0.7C625.2,7.6,626.1,8,626.5,8.7L626.5,8.7z"/>
<path class="st7" d="M644.9,72.3c0.7,0.5,0.7,1.5,0.2,2.2c0,0,0,0,0,0l0,0l-1,1.2l1.2,1c0.6,0.5,0.7,1.5,0.2,2.2
	c-0.5,0.6-1.5,0.7-2.2,0.2l-1.2-1l-1,1.2c-0.5,0.7-1.5,0.8-2.2,0.2c-0.7-0.5-0.8-1.5-0.2-2.2l0,0l1-1.2l-1.2-1
	c-0.6-0.5-0.7-1.5-0.2-2.2c0.5-0.6,1.5-0.7,2.2-0.2l1.2,1l1-1.2C643.3,71.8,644.2,71.7,644.9,72.3L644.9,72.3z"/>
<path class="st7" d="M713,76c0.7,0.5,0.7,1.5,0.2,2.2c0,0,0,0,0,0l0,0l-1,1.2l1.2,1c0.6,0.5,0.7,1.5,0.2,2.2
	c-0.5,0.6-1.5,0.7-2.2,0.2l-1.2-1l-1,1.2c-0.5,0.7-1.5,0.8-2.2,0.2c-0.7-0.5-0.8-1.5-0.2-2.2l0,0l0,0l1-1.2l-1.2-1
	c-0.6-0.5-0.7-1.5-0.2-2.2c0.5-0.6,1.5-0.7,2.2-0.2l1.2,1l1-1.2C711.3,75.5,712.3,75.4,713,76L713,76z"/>
<path class="st7" d="M604.9,132.3c0.7,0.5,0.7,1.5,0.2,2.2c0,0,0,0,0,0l0,0l-1,1.2l1.2,1c0.6,0.5,0.7,1.5,0.2,2.2
	c-0.5,0.6-1.5,0.7-2.1,0.2l-1.2-1l-1,1.2c-0.5,0.7-1.5,0.8-2.2,0.2c-0.7-0.5-0.8-1.5-0.2-2.2l0,0l1-1.2l-1.2-1
	c-0.6-0.5-0.7-1.5-0.2-2.2c0.5-0.6,1.5-0.7,2.1-0.2l1.2,1l1-1.2C603.3,131.8,604.2,131.7,604.9,132.3L604.9,132.3z"/>
<path class="st7" d="M553.9,142.3c0.7,0.5,0.7,1.5,0.2,2.2c0,0,0,0,0,0l0,0l-1,1.2l1.2,1c0.6,0.5,0.7,1.5,0.2,2.2
	c-0.5,0.6-1.5,0.7-2.1,0.2l-1.2-1l-1,1.2c-0.5,0.7-1.5,0.8-2.2,0.2c-0.7-0.5-0.8-1.5-0.2-2.2l0,0l1-1.2l-1.2-1
	c-0.6-0.5-0.7-1.5-0.2-2.2c0.5-0.6,1.5-0.7,2.1-0.2l1.2,1l1-1.2C552.3,141.8,553.2,141.7,553.9,142.3L553.9,142.3z"/>
<path class="st7" d="M410,26.9c-0.8-0.1-1.4-0.9-1.3-1.7c0,0,0,0,0,0l0,0l0.2-1.5l-1.5-0.2c-0.8-0.1-1.5-0.8-1.4-1.7
	s0.8-1.5,1.7-1.4c0,0,0,0,0,0l0,0l1.5,0.2l0.2-1.5c0.1-0.8,0.8-1.5,1.7-1.4c0.8,0.1,1.5,0.8,1.4,1.7c0,0,0,0,0,0.1l0,0l-0.2,1.5
	l1.5,0.2c0.8,0.1,1.4,0.9,1.3,1.7c-0.1,0.8-0.8,1.4-1.7,1.3l-1.5-0.2l-0.2,1.5C411.6,26.4,410.9,27,410,26.9
	C410,26.9,410,26.9,410,26.9L410,26.9z"/>
<path class="st7" d="M355,169.9c-0.8-0.1-1.4-0.9-1.3-1.7c0,0,0,0,0,0l0,0l0.2-1.5l-1.5-0.2c-0.8-0.1-1.5-0.8-1.4-1.7
	c0.1-0.8,0.8-1.5,1.7-1.4c0,0,0,0,0,0l0,0l1.5,0.2l0.2-1.5c0.1-0.8,0.8-1.5,1.7-1.4s1.5,0.8,1.4,1.7c0,0,0,0,0,0.1l0,0l-0.2,1.5
	l1.5,0.2c0.8,0.1,1.4,0.9,1.3,1.7c-0.1,0.8-0.8,1.4-1.7,1.3l-1.5-0.2l-0.2,1.5C356.6,169.4,355.9,170,355,169.9
	C355,169.9,355,169.9,355,169.9L355,169.9z"/>
<path class="st7" d="M223,136.9c-0.8-0.1-1.4-0.9-1.3-1.7c0,0,0,0,0,0l0,0l0.2-1.5l-1.5-0.2c-0.8-0.1-1.5-0.8-1.4-1.7
	c0.1-0.8,0.8-1.5,1.7-1.4c0,0,0,0,0,0l0,0l1.5,0.2l0.2-1.5c0.1-0.8,0.8-1.5,1.7-1.4c0.8,0.1,1.5,0.8,1.4,1.7c0,0,0,0,0,0l0,0
	l-0.2,1.5l1.5,0.2c0.8,0.1,1.4,0.9,1.3,1.7c-0.1,0.8-0.8,1.4-1.7,1.3l-1.5-0.2l-0.2,1.5C224.6,136.4,223.9,137,223,136.9
	C223,136.9,223,136.9,223,136.9L223,136.9z"/>
<g>
	<path class="st6" d="M88.5,123.7c-3.9,1.1-8.1,1.1-12-0.1c-9.5-2.6-10.1-11-10.5-17.2c-0.1-1-0.1-2-0.2-2.8
		c-0.7-4.7-2-9.4-3.7-13.9l-0.5-1.5l21.3-4.2l8.4-31.6c0.9-4.4,3.4-6.1,5.2-6.7c1.2-0.4,2.4-0.5,3.6-0.3c3.3,0.7,4.3,3.2,5.4,5.7
		c1.1,2.6,2.1,4.8,4.8,5.4l3.7,0.7l-1.2,5.7l-13.8-2.8c-0.1,1.3-0.2,3-0.3,5l0,1l-1,0.2c-0.1,0-0.3,0.1-0.4,0.1
		c-2,0.6-3.5,2.3-4,4.3c-0.3,1.5,0,3.1,0.8,4.4c0.7,1.1,1.8,1.9,3,2.3l1,0.3l-0.3,6l-1,0.2c-0.1,0-0.3,0.1-0.3,0.1
		c-2,0.7-3.4,2.3-3.9,4.3c-0.6,2.9,1,5.8,3.8,6.7l1,0.3l-0.2,6.1l-1.1,0.2c-0.1,0-0.3,0.1-0.3,0.1c-2,0.6-3.5,2.3-3.9,4.3
		c-0.3,1.5,0,3.1,0.8,4.4c0.7,1.1,1.7,1.9,2.9,2.3L97,113l-0.3,1.2c-0.6,3.3-2.5,6.2-5.3,8.1C90.5,122.9,89.5,123.3,88.5,123.7z"/>
	<path class="st10" d="M61.7,88.1l-0.4-1.1c-0.8-2.1-1.5-3.8-2-5l-0.6-1.5l26.7-5.9l-2.5,9.2L61.7,88.1z M119.2,61.1
		c0.4-1.5-0.5-3-2-3.3c-0.1,0-0.2,0-0.3,0l-2.8-0.6l-1.2,5.7l2.8,0.6c0.5,0.1,1.1,0.1,1.6-0.1C118.4,63,119.1,62.1,119.2,61.1
		L119.2,61.1z M104.2,90.7c0.7-3.1-1.3-6.2-4.4-6.9c-1-0.2-2.1-0.2-3.1,0.2c-3,1-4.7,4.3-3.7,7.3c0.7,2,2.3,3.5,4.4,3.9
		c1,0.2,2,0.1,3-0.2C102.3,94.4,103.7,92.7,104.2,90.7z M104.9,73c0.6-3.1-1.4-6.2-4.5-6.9c-1-0.2-2-0.2-3,0.1
		c-2,0.7-3.5,2.3-3.9,4.4c-0.3,1.5,0,3.1,0.8,4.4c1.8,2.7,5.4,3.4,8.1,1.7C103.7,75.8,104.6,74.5,104.9,73L104.9,73z M103.5,108.3
		c0.7-3.1-1.3-6.2-4.5-6.9c0,0-0.1,0-0.1,0c-3.1-0.6-6.2,1.4-6.8,4.5c-0.6,3.1,1.4,6.2,4.5,6.9C99.8,113.5,102.8,111.5,103.5,108.3
		L103.5,108.3z"/>
	<g id="stroke-2-2">
		<path d="M89,124.9c-4.2,1.2-8.6,1.2-12.8-0.1c-10.4-2.8-11-12.2-11.4-18.4c-0.1-1-0.1-1.9-0.2-2.7c-1-8.8-7-22.4-7.1-22.5
			c-0.3-0.7,0-1.5,0.7-1.8c0.1,0,0.2-0.1,0.3-0.1l26-5.8L90,52c2-9.7,10.4-8,10.5-8c3.9,0.8,5.3,4,6.4,6.6c1.1,2.5,1.8,4.1,3.8,4.5
			l3.5,0.7c0.1,0,0.1,0,0.2,0c0.1,0,0.1,0,0.2,0.1l2.6,0.5c2.2,0.4,3.7,2.5,3.3,4.8c0,0.1,0,0.2,0,0.2c-0.2,0.7-0.5,1.3-0.9,1.9
			c-1,1.2-2.6,1.8-4.1,1.4l-2.8-0.6l-0.1,0l-0.1,0l-12.2-2.5l-0.2,3.2c0.1,0,0.3,0,0.4,0.1c3.9,0.8,6.3,4.6,5.5,8.5
			c-0.7,3.2-3.4,5.5-6.6,5.7l-0.1,3.4c0.2,0,0.3,0.1,0.5,0.1c3.9,0.8,6.3,4.6,5.5,8.5l0,0c-0.7,3.2-3.4,5.5-6.6,5.7
			c0,0.7,0,1.3-0.1,2l0,1.5c0.2,0,0.3,0,0.5,0.1c3.9,0.8,6.3,4.6,5.5,8.5c-0.7,3.2-3.4,5.5-6.7,5.7C97.3,119.3,93.8,123.4,89,124.9
			L89,124.9z M63.5,89.1c1.7,4.6,3,9.4,3.7,14.2c0.1,0.9,0.2,1.8,0.2,2.9c0.4,6.1,0.9,13.7,9.5,16c5.5,1.5,10.4,1.1,13.8-1.1
			c2.5-1.7,4.2-4.3,4.7-7.3c-3.7-1.3-5.7-5.4-4.4-9.1c0.8-2.3,2.7-4,5.1-4.6l0-1.7c0-0.7,0-1.4,0.1-2.3c-3.7-1.3-5.8-5.3-4.5-9.1
			c0.8-2.3,2.7-4.1,5-4.7l0.2-3.9c-3.7-1.2-5.8-5.3-4.5-9c0.5-1.5,1.5-2.8,2.9-3.7c0.7-0.5,1.5-0.8,2.3-1l0.4-7.9
			c0-0.7,0.7-1.3,1.4-1.3c0.7,0,1.3,0.7,1.3,1.4l0,0l-0.1,1.8l11.4,2.4l0.6-3.1l-2.4-0.5c-3.5-0.7-4.7-3.6-5.7-6.1
			c-1-2.4-1.9-4.5-4.4-5c-0.6-0.1-5.9-0.9-7.3,6l-13.5,50.7c-0.2,0.7-0.9,1.2-1.6,1c-0.7-0.2-1.2-0.9-1-1.6c0,0,0-0.1,0-0.1l4.5-17
			L63.5,89.1z M96.4,102.9c-0.4,0.1-0.7,0.3-1.1,0.5c-2.1,1.4-2.6,4.1-1.3,6.2c1.4,2.1,4.1,2.6,6.2,1.3c2.1-1.4,2.6-4.1,1.3-6.2
			C100.4,103,98.3,102.3,96.4,102.9z M98,93.9c2.3,0.2,4.4-1.3,4.9-3.5l0,0c0.5-2.4-1.1-4.8-3.5-5.3c-2.4-0.5-4.8,1.1-5.3,3.5
			c-0.5,2.4,1.1,4.8,3.5,5.3c0,0,0,0,0,0s0,0,0,0C97.7,93.9,97.9,93.9,98,93.9L98,93.9z M104.2,90.7L104.2,90.7L104.2,90.7z
			 M62.5,86.6l19.3-3.8l1.7-6.3l-23,5.1C61,82.7,61.7,84.5,62.5,86.6z M97.8,67.6c-2.4,0.8-3.6,3.3-2.9,5.7c0.8,2.4,3.3,3.6,5.7,2.9
			c1.5-0.5,2.7-1.8,3-3.3l0,0c0.5-2.4-1.1-4.8-3.5-5.3C99.3,67.3,98.5,67.3,97.8,67.6L97.8,67.6z M114.5,61.8l1.5,0.3
			c0.9,0.2,1.7-0.4,1.8-1.3c0.2-0.8-0.4-1.6-1.2-1.8l-1.5-0.3L114.5,61.8z"/>
	</g>
</g>
<g>
	<g>
		<path class="st10" d="M510,49c0.6-3.6,4.1-6.1,7.7-5.4c0,0,0,0,0,0c0.1,0,0.2,0,0.3,0.1l76.8,14.9c3.6,0.6,6.1,4.1,5.4,7.7
			c0,0,0,0,0,0c0,0.1,0,0.2-0.1,0.3l-8.4,43.4c-0.6,3.6-4.1,6.1-7.7,5.4c0,0,0,0,0,0c-0.1,0-0.2,0-0.3-0.1L507,100.4
			c-3.6-0.6-6.1-4.1-5.4-7.7c0,0,0,0,0,0c0-0.1,0-0.2,0.1-0.3L510,49z"/>
		<path class="st0" d="M506.5,102c-4.4-0.9-7.4-5.2-6.6-9.6l8.5-43.7c0.8-4.5,5.1-7.6,9.7-6.8l77.1,15c4.5,0.8,7.5,5.1,6.8,9.7
			l-8.5,43.7c-0.8,4.5-5.1,7.6-9.7,6.8l-77.1-15C506.6,102,506.5,102,506.5,102z M594.6,60.3L594.6,60.3l-76.9-15
			c-2.7-0.6-5.4,1.2-5.9,3.9c0,0,0,0.1,0,0.1l-8.5,43.4c-0.6,2.7,1.1,5.3,3.8,5.9c0.1,0,0.1,0,0.2,0l76.8,14.9
			c2.7,0.6,5.4-1.2,5.9-3.9c0,0,0-0.1,0-0.1l8.5-43.4C599,63.5,597.3,60.9,594.6,60.3C594.6,60.3,594.6,60.3,594.6,60.3z"/>
	</g>
	<g>
		<path class="st0" d="M517.2,92c-6.5-1.3-10.7-7.5-9.4-14c1.3-6.5,7.5-10.7,14-9.4c6.5,1.3,10.7,7.5,9.4,14c0,0,0,0,0,0
			C529.9,89,523.7,93.3,517.2,92z M591.3,94.3c1.3-6.5-3-12.7-9.4-14c-6.5-1.3-12.7,3-14,9.4c-1.3,6.5,3,12.7,9.4,14c0,0,0,0,0,0
			C583.8,104.9,590,100.7,591.3,94.3C591.3,94.3,591.3,94.3,591.3,94.3L591.3,94.3z"/>
		<path class="st6" d="M577,105.4c-7.4-1.4-12.2-8.6-10.8-15.9c1.4-7.4,8.6-12.2,15.9-10.8c7.4,1.4,12.2,8.6,10.8,15.9
			C591.5,102,584.4,106.8,577,105.4z M581.5,82c-5.5-1.1-10.9,2.5-12,8.1c-1.1,5.5,2.5,10.9,8.1,12c5.5,1.1,10.9-2.5,12-8.1
			c0,0,0,0,0,0C590.7,88.4,587.1,83.1,581.5,82z M516.9,93.7c-7.4-1.4-12.2-8.6-10.8-15.9c1.4-7.4,8.6-12.2,15.9-10.8
			c7.4,1.4,12.2,8.6,10.8,15.9C531.4,90.3,524.3,95.1,516.9,93.7z M521.5,70.3c-5.5-1.1-10.9,2.5-12,8.1c-1.1,5.5,2.5,10.9,8.1,12
			c5.5,1.1,10.9-2.5,12-8.1c0,0,0,0,0,0C530.6,76.7,527,71.4,521.5,70.3L521.5,70.3z"/>
	</g>
	<rect x="545.7" y="71" transform="matrix(0.1911 -0.9816 0.9816 0.1911 367.575 605.0014)" class="st4" width="10.2" height="17"/>
	<path class="st2" d="M518.9,83.7c-1.8-0.4-3-2.1-2.7-4s2.1-3,4-2.7c1.8,0.4,3,2.1,2.7,4C522.5,82.8,520.7,84,518.9,83.7
		C518.9,83.7,518.9,83.7,518.9,83.7z M582.9,92.7c0.4-1.8-0.8-3.6-2.7-4s-3.6,0.8-4,2.7c-0.4,1.8,0.8,3.6,2.7,4
		C580.8,95.7,582.6,94.5,582.9,92.7C582.9,92.7,582.9,92.7,582.9,92.7z"/>
	<path class="st6" d="M531.4,63.6l1.3-6.7l43.4,8.4l-1.3,6.7L531.4,63.6z M561.6,104.1l1.9-10l-30-5.8l-1.9,10L561.6,104.1z"/>
	<g id="stroke-3-2">
		<path d="M506.5,102c-4.4-0.9-7.4-5.2-6.6-9.6l8.5-43.7c0.8-4.5,5.1-7.6,9.7-6.8l18.7,3.6l1.6-8.3c0.3-1.4,1.1-2.6,2.2-3.3
			c1.1-0.7,2.5-0.9,3.8-0.7l30,5.8c2.8,0.5,4.6,3.2,4,5.9c0,0,0,0.1,0,0.1l-1.6,8.3l18.4,3.6c4.5,0.8,7.5,5.1,6.8,9.7l-8.5,43.7
			c-0.8,4.5-5.1,7.6-9.7,6.8l-77.1-15C506.6,102,506.5,102,506.5,102z M506.2,77.7l-2.9,15c-0.3,1.4,0,2.8,0.8,3.9
			c0.8,1.1,1.9,1.8,3.2,2l21.7,4.2l3.9-20c-1.4,7.4-8.6,12.2-16,10.8S504.7,85.1,506.2,77.7L506.2,77.7z M533,100.3l-0.7,3.3
			l26.7,5.2l0.7-3.3L533,100.3z M566.2,89.4l-3.9,20l21.7,4.2c2.7,0.6,5.4-1.2,5.9-3.9c0,0,0-0.1,0-0.1l6.2-31.7l-26.7-5.2
			L566.2,89.4c1.4-7.4,8.6-12.2,15.9-10.8c7.4,1.4,12.2,8.6,10.7,16c-1.4,7.4-8.6,12.2-15.9,10.7C569.6,103.9,564.8,96.8,566.2,89.4
			z M533.6,96.9l26.7,5.2l1.3-6.7l-26.7-5.2L533.6,96.9z M581.5,82c-5.5-1.1-10.9,2.5-12,8.1c-1.1,5.5,2.5,10.9,8.1,12
			c5.5,1.1,10.9-2.5,12-8.1c0,0,0,0,0,0C590.7,88.4,587.1,83.1,581.5,82z M521.5,70.3c-5.5-1.1-10.9,2.5-12,8.1
			c-1.1,5.5,2.5,10.9,8.1,12c5.5,1.1,10.9-2.5,12-8.1c0,0,0,0,0,0C530.6,76.7,527,71.4,521.5,70.3z M535.6,86.9l26.7,5.2l3.9-20
			l-26.7-5.2L535.6,86.9z M522.1,67c7.4,1.4,12.2,8.6,10.8,15.9l3.2-16.7L509.4,61l-3.2,16.7C507.6,70.3,514.7,65.5,522.1,67z
			 M576.8,70.7l20,3.9l1.6-8.3c0.6-2.7-1.2-5.4-3.9-5.9c0,0,0,0,0,0l-0.1,0l-15.1-2.9L576.8,70.7z M533.4,62.2l40,7.8l0.7-3.3
			l-40-7.8L533.4,62.2z M510.1,57.7l20,3.9l2.6-13.3l-15-2.9c-2.7-0.6-5.4,1.2-5.9,3.9c0,0,0,0.1,0,0.1L510.1,57.7z M534.7,55.6
			l40,7.8l1.3-6.7l-40-7.8L534.7,55.6z M543.6,36.5c-0.4-0.1-0.9,0-1.2,0.2c-0.4,0.2-0.6,0.6-0.7,1l-1.6,8.4l33.4,6.5l1.6-8.3
			c0.1-0.4,0-0.9-0.2-1.3c-0.2-0.4-0.6-0.6-1-0.7L543.6,36.5L543.6,36.5z M578.6,97c-2.8-0.5-4.6-3.2-4-6s3.2-4.6,6-4
			c2.8,0.5,4.6,3.2,4,6c0,0,0,0,0,0C584.1,95.7,581.4,97.6,578.6,97z M579.9,90.3c-0.9-0.2-1.8,0.4-2,1.3s0.4,1.8,1.3,2
			c0.9,0.2,1.8-0.4,2-1.3c0,0,0,0,0,0C581.4,91.4,580.8,90.5,579.9,90.3C579.9,90.3,579.9,90.3,579.9,90.3L579.9,90.3z M518.5,85.3
			c-2.8-0.5-4.6-3.2-4-6s3.2-4.6,6-4c2.8,0.5,4.6,3.2,4,6c0,0,0,0,0,0C524,84.1,521.3,85.9,518.5,85.3L518.5,85.3z M519.8,78.6
			c-0.9-0.2-1.8,0.4-2,1.3s0.4,1.8,1.3,2c0.9,0.2,1.8-0.4,2-1.3c0,0,0,0,0,0C521.4,79.7,520.8,78.8,519.8,78.6L519.8,78.6z
			 M559.6,88.1l-20-3.9l2.6-13.3l20,3.9L559.6,88.1z M543.5,81.5l13.3,2.6l1.3-6.7l-13.3-2.6L543.5,81.5z"/>
	</g>
</g>
<g>
	<g id="color">
		<path class="st10" d="M687.9,89.8l11.7,47.1c0.7,2.7-0.9,5.4-3.5,6.1c0,0,0,0,0,0c-0.1,0-0.1,0-0.2,0.1l-57,14.2
			c-2.7,0.7-5.4-0.9-6.1-3.5c0,0,0,0,0,0c0-0.1,0-0.1-0.1-0.2L621,106.5c-0.7-2.7,0.9-5.4,3.5-6.1c0,0,0,0,0,0c0.1,0,0.1,0,0.2-0.1
			l57-14.2c2.7-0.7,5.4,0.9,6.1,3.5c0,0,0,0,0,0C687.9,89.7,687.9,89.8,687.9,89.8z"/>
		<path class="st10" d="M694.1,114.6l5.6,22.3c0.7,2.7-0.9,5.4-3.5,6.1c0,0,0,0,0,0c-0.1,0-0.1,0-0.2,0.1l-57,14.2
			c-2.7,0.7-5.4-0.9-6.1-3.5c0,0,0,0,0,0c0-0.1,0-0.1-0.1-0.2l-5.6-22.3L694.1,114.6z"/>
		
			<ellipse transform="matrix(0.9704 -0.2414 0.2414 0.9704 -11.5582 168.9718)" class="st11" cx="683.8" cy="131.7" rx="6.4" ry="6.4"/>
		<path class="st10" d="M682.6,95.1c-0.3-1.3-1.6-2.2-3-1.9c0,0,0,0,0,0l-0.1,0l-52.1,13c-1.3,0.3-2.2,1.6-1.9,3c0,0,0,0,0,0
			c0,0,0,0.1,0,0.1l3.1,12.4c0.3,1.3,1.6,2.2,3,1.9c0,0,0,0,0,0l0.1,0l52.1-13c1.3-0.3,2.2-1.6,1.9-3c0,0,0,0,0,0c0,0,0-0.1,0-0.1
			L682.6,95.1z"/>
		<path class="st12" d="M655.3,144l-5,1.2l-1.2-5l5-1.2L655.3,144z M669,135.4l-5,1.2l1.2,5l5-1.2L669,135.4z"/>
		<path class="st13" d="M655.9,146.5l-12.4,3.1l-0.6-2.5l12.4-3.1L655.9,146.5z M670.2,140.3l-5,1.2l0.6,2.5l5-1.2L670.2,140.3z"/>
		<path class="st14" d="M654.1,139.1l-5,1.2l-1.2-5l5-1.2L654.1,139.1z M667.7,130.4l-5,1.2l1.2,5l5-1.2L667.7,130.4z"/>
		
			<rect x="643.7" y="146.1" transform="matrix(0.9704 -0.2414 0.2414 0.9704 -16.4347 163.1875)" class="st7" width="28.1" height="5.1"/>
	</g>
	<g id="stroke-4">
		<path d="M639.1,158.6c-3.3,0.8-6.7-1.2-7.6-4.5l-11.8-47.3c-0.9-3.3,1.1-6.8,4.4-7.7l57.3-14.2l0.1,0c3.3-0.8,6.7,1.2,7.6,4.5
			l11.8,47.3c0.9,3.3-1.1,6.8-4.4,7.7l-57.3,14.2L639.1,158.6z M628.7,132.2l5.2,21.1c0.5,2,2.5,3.3,4.6,2.8c0,0,0,0,0.1,0l3.7-0.9
			l-4-16.1c-0.5-2,0.7-4.1,2.7-4.6c0,0,0,0,0.1,0l24.8-6.2c2-0.5,4.1,0.7,4.6,2.8c0,0,0,0,0,0.1l4,16.1l21.1-5.2
			c2-0.5,3.3-2.5,2.8-4.5c0,0,0-0.1,0-0.1l-5.2-21.1L628.7,132.2z M644.2,152.1l0.6,2.5l5-1.2l-0.6-2.5L644.2,152.1z M651.6,150.2
			l0.6,2.5l5-1.2l-0.6-2.5L651.6,150.2z M659,148.4l0.6,2.5l5-1.2l-0.6-2.5L659,148.4z M666.5,146.5l0.6,2.5l5-1.2l-0.6-2.5
			L666.5,146.5z M665.9,144l5-1.2l-0.6-2.5l-5,1.2L665.9,144z M658.4,145.9l5-1.2l-0.6-2.5l-5,1.2L658.4,145.9z M651,147.7l5-1.2
			l-0.6-2.5l-5,1.2L651,147.7z M643.5,149.6l5-1.2l-0.6-2.5l-5,1.2L643.5,149.6z M664.6,139.1l5-1.2l-0.6-2.5l-5,1.2L664.6,139.1z
			 M657.2,140.9l5-1.2l-0.6-2.5l-5,1.2L657.2,140.9z M649.7,142.8l5-1.2l-0.6-2.5l-5,1.2L649.7,142.8z M642.3,144.6l5-1.2l-0.6-2.5
			l-5,1.2L642.3,144.6z M663.4,134.1l5-1.2l-0.3-1.2c-0.1-0.7-0.8-1.1-1.5-1c0,0,0,0,0,0l-3.8,0.9L663.4,134.1z M656,136l5-1.2
			l-0.6-2.5l-5,1.2L656,136z M648.5,137.8l5-1.2l-0.6-2.5l-5,1.2L648.5,137.8z M641.1,139.7l5-1.2l-0.6-2.5l-3.7,0.9
			c-0.3,0.1-0.6,0.3-0.8,0.5c-0.2,0.3-0.2,0.6-0.2,0.9L641.1,139.7z M628.1,129.7l64.5-16l-5.9-23.6c-0.4-2-2.4-3.3-4.4-2.8
			c-0.1,0-0.1,0-0.2,0L625,101.5c-2,0.5-3.3,2.5-2.8,4.5c0,0,0,0.1,0,0.1L628.1,129.7z M685.7,139.1c-4.1,1-8.3-1.5-9.3-5.6
			s1.5-8.3,5.6-9.3c4.1-1,8.3,1.5,9.3,5.6c0,0,0,0,0,0C692.3,133.9,689.8,138.1,685.7,139.1z M682.6,126.7c-2.7,0.7-4.4,3.5-3.7,6.2
			s3.5,4.4,6.2,3.7c2.7-0.7,4.4-3.5,3.7-6.2c0,0,0,0,0,0C688.1,127.7,685.3,126,682.6,126.7L682.6,126.7z M681.4,111.2l-2.5,0.6
			l-2.5-9.9l-2.5,0.6l-0.6-2.5l2.5-0.6l-1.2-5l2.5-0.6l1.2,5l2.5-0.6l0.6,2.5l-2.5,0.6L681.4,111.2z M666.5,114.9l-2.5,0.6l-1.8-7.4
			l-2.5,0.6l-0.6-2.5l2.5-0.6l-1.8-7.4l2.5-0.6l1.8,7.4l2.5-0.6l0.6,2.5l-2.5,0.6L666.5,114.9z M651.6,118.6l-2.5,0.6l-1.2-5
			l-2.5,0.6l-0.6-2.5l2.5-0.6l-2.5-9.9l2.5-0.6l2.5,9.9l2.5-0.6l0.6,2.5l-2.5,0.6L651.6,118.6z M636.8,122.3l-2.5,0.6l-2.5-9.9
			l-2.5,0.6l-0.6-2.5l2.5-0.6l-1.2-5l2.5-0.6l1.2,5l2.5-0.6l0.6,2.5l-2.5,0.6L636.8,122.3z"/>
	</g>
</g>
</svg>
