<svg id="Capa_1" data-name="Capa 1" xmlns="http://www.w3.org/2000/svg" width="32" height="32" viewBox="0 0 32 32">
  <defs>
    <style>
      .cls-1 {
        fill: #cfe8f1;
      }

      .cls-2, .cls-3, .cls-4 {
        fill: #fff;
        isolation: isolate;
      }

      .cls-2 {
        opacity: 0.4;
      }

      .cls-3 {
        opacity: 0.6;
      }

      .cls-4 {
        opacity: 0.8;
      }

      .cls-5 {
        fill: none;
        stroke: #000;
        stroke-linecap: round;
        stroke-miterlimit: 10;
      }
    </style>
  </defs>
  <title>Tekengebied 1</title>
  <g id="color">
    <circle class="cls-1" cx="15.5" cy="15.5" r="12"/>
    <path class="cls-2" d="M20.75,9.125a21.236,21.236,0,0,0-4.758-.616L15.5,8.5V3.487l.522.023a12.12,12.12,0,0,1,2.753.448l.16.045.1.131A15.964,15.964,0,0,1,21.341,8.47l.314.878ZM15.5,15.5v-7l-.51.01a21.022,21.022,0,0,0-5.357.779l-.267.077-.077.267A21.035,21.035,0,0,0,8.51,14.99l-.01.51Z"/>
    <path class="cls-3" d="M19.834,25.708a17.356,17.356,0,0,0,1.729-3.829l.079-.248.248-.078a17.492,17.492,0,0,0,3.82-1.721L27.095,19l-.671,1.472a12.034,12.034,0,0,1-5.958,5.958l-1.491.68ZM3.9,12.025l1.39-.848a17.374,17.374,0,0,1,3.83-1.729l.248-.079.079-.248a17.252,17.252,0,0,1,1.729-3.828l.862-1.4-1.495.68a12.022,12.022,0,0,0-5.968,5.968ZM15.5,27.513v-5l-.489-.011a21.787,21.787,0,0,1-4.761-.625l-.9-.224.312.877a16.012,16.012,0,0,0,2.3,4.346l.1.135.164.044a12.779,12.779,0,0,0,2.749.438Z"/>
    <path class="cls-4" d="M22.511,15.5l-.011-.489a21.771,21.771,0,0,0-.625-4.761l-.224-.9.877.312a15.986,15.986,0,0,1,4.347,2.3l.134.1.044.164a12.779,12.779,0,0,1,.438,2.749l.022.522h-5ZM9.351,21.658l-.226-.908A21.747,21.747,0,0,1,8.5,15.989L8.489,15.5h-5l.023.522a12.12,12.12,0,0,0,.448,2.753L4,18.933l.13.1A16.014,16.014,0,0,0,8.47,21.341Zm6.149.855.512-.013a21.487,21.487,0,0,0,5.356-.789l.267-.076.076-.267a21.441,21.441,0,0,0,.789-5.356l.013-.512H15.5Z"/>
  </g>
  <g id="ligths_stroke">
    <path class="cls-5" d="M2.5,27.5h4m-2-2v4m21-25h4m-2-2v4"/>
    <path class="cls-5" d="M4.5,3.5h2m-1-1v2m21,22h2m-1-1v2"/>
  </g>
  <path id="stroke" class="cls-5" d="M15.5,27.5a12,12,0,1,1,12-12A12,12,0,0,1,15.5,27.5ZM11.975,4.12A18.521,18.521,0,0,0,8.5,15.5a18.373,18.373,0,0,0,3.591,11.528m6.8.028A18.345,18.345,0,0,0,22.5,15.5,18.465,18.465,0,0,0,18.982,4.064M4.095,19.007A18.5,18.5,0,0,0,15.5,22.5a18.4,18.4,0,0,0,11.508-3.574M26.915,12A18.5,18.5,0,0,0,15.5,8.5,18.5,18.5,0,0,0,4.084,12M15.5,3.5v24m-12-12h24"/>
</svg>
