<svg id="Capa_1" data-name="Capa 1" xmlns="http://www.w3.org/2000/svg" width="32" height="32" viewBox="0 0 32 32">
  <defs>
    <style>
      .cls-1 {
        fill: #cfe8f1;
        stroke: #ffcaca;
      }

      .cls-1, .cls-2, .cls-6 {
        stroke-miterlimit: 10;
      }

      .cls-2 {
        fill: #ffcaca;
        stroke: #bbff96;
      }

      .cls-3 {
        fill: #fff;
      }

      .cls-4 {
        fill: #333;
      }

      .cls-5 {
        fill: #bbff96;
      }

      .cls-6 {
        fill: none;
        stroke: #000;
      }
    </style>
  </defs>
  <title>Tekengebied 1</title>
  <path class="cls-1" d="M2.5,11.5a1.959,1.959,0,0,1,2-2h23a1.959,1.959,0,0,1,2,2v13a1.959,1.959,0,0,1-2,2H4.5a1.959,1.959,0,0,1-2-2Z"/>
  <path class="cls-2" d="M7,23.5A3.5,3.5,0,1,1,10.5,20,3.5,3.5,0,0,1,7,23.5ZM28.5,20A3.5,3.5,0,1,0,25,23.5,3.5,3.5,0,0,0,28.5,20Z"/>
  <rect class="cls-3" x="13.5" y="16.5" width="5" height="3"/>
  <path class="cls-4" d="M7,21a1,1,0,1,1,1-1A1,1,0,0,1,7,21Zm19-1a1,1,0,1,0-1,1A1,1,0,0,0,26,20Z"/>
  <path class="cls-5" d="M9.5,14.5v-2h13v2Zm11,10v-3h-9v3Z"/>
  <path id="stroke" class="cls-6" d="M2.5,11.5a1.959,1.959,0,0,1,2-2h23a1.959,1.959,0,0,1,2,2v13a1.959,1.959,0,0,1-2,2H4.5a1.959,1.959,0,0,1-2-2Zm8,8.5A3.5,3.5,0,1,0,7,23.5,3.5,3.5,0,0,0,10.5,20ZM8,20a1,1,0,1,0-1,1A1,1,0,0,0,8,20Zm18,0a1,1,0,1,0-1,1A1,1,0,0,0,26,20Zm-5.5,6.5v-12h-9v12m17-6.5A3.5,3.5,0,1,0,25,23.5,3.5,3.5,0,0,0,28.5,20Zm-26-5.5h27m-18,10h9m-9-3h9m-7-2h5v-3h-5Zm-4-10v5m13-5v5m-1-5v-3a.979.979,0,0,0-1-1h-9a.979.979,0,0,0-1,1v3M9,12.5H23"/>
</svg>
