<svg id="Capa_1" data-name="Capa 1" xmlns="http://www.w3.org/2000/svg" width="32" height="32" viewBox="0 0 32 32">
  <defs>
    <style>
      .cls-1 {
        fill: #bbff96;
      }

      .cls-2 {
        fill: #cfe8f1;
      }

      .cls-3, .cls-4 {
        fill: none;
        stroke: #000;
        stroke-linecap: round;
      }

      .cls-3 {
        stroke-miterlimit: 10;
      }

      .cls-4 {
        stroke-linejoin: round;
      }
    </style>
  </defs>
  <title>Tekengebied 1</title>
  <g id="color">
    <path class="cls-1" d="M11.069,29.323a7.93,7.93,0,0,1-4.243-1.455c-3.092-2.027-2.287-5.106-1.7-7.354.1-.374.187-.717.256-1.031A25.935,25.935,0,0,0,5.7,14.1l-.016-.583,8.059,1.012L20.451,4.266A3.037,3.037,0,0,1,23.1,2.49a2.842,2.842,0,0,1,1.317.331c1.077.621,1.162,1.655,1.245,2.655.091,1.037.172,1.957,1.083,2.479l1.225.7-1.079,1.879L22.329,7.9c-.187.466-.415,1.06-.683,1.755L21.513,10l-.368-.025c-.053,0-.1-.005-.157-.005a2.241,2.241,0,0,0-1.935,1.065,2.166,2.166,0,0,0-.211,1.648,2.091,2.091,0,0,0,.8,1.19l.307.226-.807,2.118-.394-.055c-.032,0-.118,0-.132,0a2.2,2.2,0,0,0-1.889,1.083,2.151,2.151,0,0,0,.584,2.823l.306.224-.794,2.131-.4-.056c-.031,0-.117,0-.131,0a2.165,2.165,0,0,0-1.885,1.086,2.139,2.139,0,0,0-.223,1.651,2.105,2.105,0,0,0,.777,1.162l.359.268-.227.387a4.6,4.6,0,0,1-2.836,2.261A4.737,4.737,0,0,1,11.069,29.323Z"/>
    <path class="cls-2" d="M5.686,13.524,5.67,13.1c-.03-.83-.079-1.531-.119-1.995L5.5,10.5l10.208,1.022-1.96,3Zm23.645-2.86a1.03,1.03,0,0,0-.41-1.467l-.934-.541L26.9,10.545l.943.537a1.134,1.134,0,0,0,.575.167A1.058,1.058,0,0,0,29.331,10.664ZM20.5,19.423A2.167,2.167,0,0,0,18.62,16.16a2.177,2.177,0,0,0-1.077,4.07,2.289,2.289,0,0,0,1.077.279A2.176,2.176,0,0,0,20.5,19.423Zm2.333-6.2a2.177,2.177,0,0,0-.8-2.967,2.114,2.114,0,0,0-1.088-.3,2.191,2.191,0,0,0-1.9,1.094,2.216,2.216,0,0,0-.217,1.648,2.182,2.182,0,0,0,4,.527Zm-4.651,12.4a2.165,2.165,0,0,0-.809-2.977,2.185,2.185,0,0,0-2.966.807,2.191,2.191,0,0,0,.81,2.977,2.183,2.183,0,0,0,2.965-.807Z"/>
    <path class="cls-3" d="M14.5,2.5v2m-1-1h2m7,23v2m-1-1h2"/>
    <path class="cls-3" d="M4.5,4.5v2m-1-1h2m22,14v4m-2-2h4"/>
  </g>
  <path id="stroke" class="cls-4" d="M9.695,20.724,20.437,4.3c1.634-2.829,3.993-1.467,3.993-1.467,2.091,1.208.434,4.038,2.32,5.125l2.175,1.242a1.089,1.089,0,0,1-1.089,1.886L22.549,8.029m.174-1.156s-.445,1.148-1.12,2.9m-1.665,4.348c-.279.731-.5,1.327-.79,2.09m-1.519,4.051c-.286.771-.436,1.2-.691,1.906M15.5,11.5l-10-1s.569,5.617-.121,8.989c-.436,2.133-2.16,6.011,1.449,8.38,3.3,2.168,6.722,2.054,8.449-1.271M5.94,13.555l7.56.945m13.393-3.963,1.09-1.887M20.506,19.422a2.178,2.178,0,1,0-2.977.8A2.178,2.178,0,0,0,20.506,19.422Zm2.323-6.2a2.178,2.178,0,1,0-2.975.8A2.178,2.178,0,0,0,22.829,13.22Zm-4.646,12.4a2.179,2.179,0,1,0-2.976.8A2.178,2.178,0,0,0,18.183,25.624Z"/>
</svg>
