<svg id="Capa_1" data-name="Capa 1" xmlns="http://www.w3.org/2000/svg" width="32" height="32" viewBox="0 0 32 32">
  <defs>
    <style>
      .cls-1 {
        fill: #cfe8f1;
      }

      .cls-2 {
        fill: #ffcaca;
      }

      .cls-3, .cls-4 {
        fill: none;
        stroke: #000;
        stroke-miterlimit: 10;
      }

      .cls-3 {
        stroke-linecap: round;
      }
    </style>
  </defs>
  <title>Tekengebied 1</title>
  <path class="cls-1" d="M16,22.5A6.508,6.508,0,0,1,9.5,16V14.133l.922,1.448A3.6,3.6,0,0,0,13.5,17.5a3.89,3.89,0,0,0,2.983-1.49A3.97,3.97,0,0,1,19.5,14.5a2.773,2.773,0,0,1,2.918,2.331l.021.094-.015.095A6.485,6.485,0,0,1,16,22.5Z"/>
  <path class="cls-2" d="M13.5,17.5c-1.534,0-2.845-1.1-3.69-3.1l-.072-.169.055-.176a6.5,6.5,0,0,1,12.587.694l.3,1.526-1.132-1.065A2.874,2.874,0,0,0,19.5,14.5,3.865,3.865,0,0,0,16.506,16,3.95,3.95,0,0,1,13.5,17.5Z"/>
  <path class="cls-3" d="M3,14.5v2m-1-1H4m8.5-12v2m-1-1h2m7,22v2m-1-1h2"/>
  <path class="cls-3" d="M29,15.5v2m-1-1h2m-9.5-14v2m-1-1h2m-9,24v2m-1-1h2"/>
  <path id="stroke" class="cls-4" d="M16,22.5A6.5,6.5,0,1,1,22.5,16,6.5,6.5,0,0,1,16,22.5ZM9.742,14.228c.45,1.153,1.574,3.272,3.758,3.272,3,0,3-3,6-3a2.775,2.775,0,0,1,2.922,2.369M9.938,7.531,6.383,12.91M8.547,6.594,4.992,11.953M7.137,5.665,3.578,11.016m23.371.978L23.5,6.75m2.852,1.245L24.891,5.8m3.453,5.25L26.728,8.571M9.969,24.641l-3.507-5.4m2.1,6.337L6.93,23.08M5.08,20.231l1.44,2.218m-2.883-1.3,3.521,5.409m16.783-4.88,1.648-2.469m-3.558,5.321L23.592,22.2m3.377-2.091-1.621,2.4m-.366.547-1.607,2.4M26.7,23.485l1.643-2.454m-3.578,5.36,1.625-2.442M23.572,9.919,22.106,7.667m3.441,5.271-1.6-2.442"/>
</svg>
