<svg id="Capa_1" data-name="Capa 1" xmlns="http://www.w3.org/2000/svg" width="32" height="32" viewBox="0 0 32 32">
  <defs>
    <style>
      .cls-1 {
        fill: #ffe2bb;
      }

      .cls-2 {
        fill: #cfe8f1;
      }

      .cls-3 {
        fill: #fff;
      }

      .cls-4 {
        fill: none;
        stroke: #000;
        stroke-linecap: round;
        stroke-linejoin: round;
      }
    </style>
  </defs>
  <title>Tekengebied 1</title>
  <path class="cls-1" d="M26.5,4.5v16a6.138,6.138,0,0,1-1.25,4.12,2.922,2.922,0,0,0-.75,1.88h-12c0-.75-.4-1-1.19-1.5-1.3-.83-3.72-2.36-7.22-8.09-.91-1.44-.5-2.33-.01-2.83a2.056,2.056,0,0,1,1.42-.56,2.02,2.02,0,0,1,1.42.57l3.58,3.6V4.5a1.938,1.938,0,0,1,2-2,1.938,1.938,0,0,1,2,2V9.42l.79-.58A2.083,2.083,0,0,1,16.5,8.5a1.816,1.816,0,0,1,1.59.74l.41.58.41-.58A1.816,1.816,0,0,1,20.5,8.5a2.083,2.083,0,0,1,1.21.34l.79.58V4.5a2,2,0,0,1,4,0Z"/>
  <rect class="cls-2" x="12.5" y="26.5" width="12" height="3"/>
  <rect class="cls-3" x="21.5" y="26.5" width="3" height="3"/>
  <path id="stroke" class="cls-4" d="M14.5,10.5a2,2,0,0,1,4,0v6a2,2,0,0,1-4,0Zm4,6a2,2,0,0,0,4,0v-6a2,2,0,0,0-4,0Zm-4-5v-7a2,2,0,0,0-4,0V17.688l-3.586-3.6a2,2,0,0,0-2.828,0c-.781.781-.648,1.789,0,2.828C9.667,26.042,12.5,24.5,12.5,26.5v3h12v-3c0-2,2-2,2-6V4.5a2,2,0,0,0-4,0v12m-10,10h12m-3,0v3m-1-18h2m-6,0h2"/>
</svg>
