<?xml version="1.0" encoding="utf-8"?>
<!-- Generator: Adobe Illustrator 21.1.0, SVG Export Plug-In . SVG Version: 6.00 Build 0)  -->
<!DOCTYPE svg PUBLIC "-//W3C//DTD SVG 1.1//EN" "http://www.w3.org/Graphics/SVG/1.1/DTD/svg11.dtd">
<svg version="1.1" id="Laag_1" xmlns="http://www.w3.org/2000/svg" xmlns:xlink="http://www.w3.org/1999/xlink" x="0px" y="0px"
	 viewBox="0 0 643 195" style="enable-background:new 0 0 643 195;" xml:space="preserve">
<style type="text/css">
	.st0{fill:#CFE8F1;}
	.st1{fill:#FFCACA;}
	.st2{fill:#BBFF96;}
	.st3{fill:#FFFFFF;}
	.st4{fill:#333333;}
	.st5{opacity:0.2;}
	.st6{opacity:0.15;}
	.st7{opacity:0.4;}
	.st8{fill:#FFE2BB;}
	.st9{fill:#FF5069;}
</style>
<g>
	<g>
		<path class="st0" d="M445.8,65.4c0.9-5.1,5.8-8.6,10.9-7.7c0.1,0,0.3,0,0.4,0.1l108.6,21.1c5.1,0.9,8.6,5.8,7.7,10.9
			c0,0.1,0,0.3-0.1,0.4l-11.9,61.4c-0.9,5.1-5.8,8.6-10.9,7.7c-0.1,0-0.3,0-0.4-0.1L441.5,138c-5.1-0.9-8.6-5.8-7.7-10.9
			c0-0.1,0-0.3,0.1-0.4L445.8,65.4z"/>
		<path class="st1" d="M440.8,140.3c-6.2-1.2-10.4-7.3-9.3-13.6l12-61.8c1.1-6.4,7.2-10.7,13.7-9.6l109,21.2
			c6.4,1.3,10.7,7.2,9.6,13.7l-12,61.8c-1.1,6.4-7.2,10.7-13.7,9.6l-109-21.2C440.9,140.4,440.8,140.4,440.8,140.3z M565.4,81.3
			c0,0-0.1,0-0.1,0L456.6,60.1c-4.2-0.7-7.8,1.8-8.4,5.7l-12,61.4c-0.7,4.2,1.8,7.9,5.7,8.4l108.6,21.1c4.2,0.7,7.8-1.8,8.4-5.7
			l12-61.4C571.6,85.6,569.1,82,565.4,81.3z"/>
	</g>
	<g>
		<path class="st1" d="M456,126.2c-9.1-1.8-15.1-10.6-13.3-19.7c1.8-9.1,10.6-15.1,19.7-13.3c9.1,1.8,15.1,10.6,13.3,19.7
			C474,122,465.2,127.9,456,126.2z M560.7,129.4c1.8-9.1-4.2-18-13.3-19.7c-9.1-1.8-18,4.2-19.7,13.3c-1.8,9.1,4.2,18,13.3,19.7
			C550.1,144.5,559,138.5,560.7,129.4z"/>
		<path class="st2" d="M540.5,145.1c-10.4-2-17.2-12.1-15.2-22.6s12.1-17.2,22.6-15.2c10.4,2,17.2,12.1,15.2,22.6
			C561.1,140.3,550.9,147.1,540.5,145.1z M547,112c-7.8-1.5-15.4,3.6-16.9,11.4c-1.5,7.8,3.6,15.4,11.4,16.9
			c7.8,1.5,15.4-3.6,16.9-11.4C559.9,121.1,554.8,113.5,547,112z M455.6,128.5c-10.4-2-17.2-12.1-15.2-22.6s12.1-17.2,22.6-15.2
			c10.4,2,17.2,12.1,15.2,22.6S466,130.5,455.6,128.5z M462,95.5c-7.8-1.5-15.4,3.6-16.9,11.4s3.6,15.4,11.4,16.9
			c7.8,1.5,15.4-3.6,16.9-11.4S469.8,97,462,95.5z"/>
	</g>
	<g>
		
			<rect x="496.4" y="96.4" transform="matrix(0.1911 -0.9816 0.9816 0.1911 300.877 582.0326)" class="st3" width="14.4" height="24"/>
	</g>
	<g>
		<path class="st4" d="M458.3,114.4c-2.6-0.5-4.3-3-3.8-5.6c0.5-2.6,3-4.3,5.6-3.8s4.3,3,3.8,5.6
			C463.5,113.2,460.9,114.9,458.3,114.4z M548.9,127.1c0.5-2.6-1.2-5.1-3.8-5.6c-2.6-0.5-5.1,1.2-5.6,3.8c-0.5,2.6,1.2,5.1,3.8,5.6
			C545.9,131.4,548.4,129.7,548.9,127.1z"/>
	</g>
	<g>
		<path class="st2" d="M476.1,86l1.8-9.4l61.4,11.9l-1.8,9.4L476.1,86z M518.8,143.3l2.8-14.2l-42.5-8.3l-2.8,14.2L518.8,143.3z"/>
	</g>
	<g id="stroke_2_">
		<path d="M440.8,140.3c-6.2-1.2-10.4-7.3-9.3-13.6l12-61.8c1.1-6.4,7.2-10.7,13.7-9.6l26.4,5.1l2.3-11.8c0.5-2.1,1.6-3.7,3.2-4.7
			c1.6-1,3.7-1.3,5.4-1l42.4,8.3c4.1,0.9,6.5,4.7,5.7,8.5l-2.3,11.8l26,5.1c6.4,1.3,10.7,7.2,9.6,13.7l-12,61.8
			c-1.1,6.4-7.2,10.7-13.7,9.6l-109-21.2C440.9,140.4,440.8,140.4,440.8,140.3z M440.4,106l-4.1,21.2c-0.4,2.2,0,4,1.1,5.6
			c1.1,1.5,2.9,2.6,4.5,2.9l30.7,6l5.5-28.3c-2,10.4-12.1,17.2-22.6,15.2C445.2,126.5,438.3,116.4,440.4,106z M478.3,137.8l-0.9,4.7
			l37.8,7.4l0.9-4.7L478.3,137.8z M525.3,122.5l-5.5,28.3l30.7,6c4.2,0.7,7.8-1.8,8.4-5.7l8.7-44.9l-37.8-7.4L525.3,122.5
			c2-10.4,12.1-17.2,22.6-15.2c10.4,2,17.2,12.1,15.2,22.6c-2,10.4-12.1,17.2-22.6,15.2C530.1,143,523.3,132.9,525.3,122.5z
			 M479.2,133.1l37.8,7.4l1.8-9.4l-37.8-7.4L479.2,133.1z M547,112c-7.8-1.5-15.4,3.6-16.9,11.4c-1.5,7.8,3.6,15.4,11.4,16.9
			c7.8,1.5,15.4-3.6,16.9-11.4C559.9,121.1,554.8,113.5,547,112z M462,95.5c-7.8-1.5-15.4,3.6-16.9,11.4s3.6,15.4,11.4,16.9
			c7.8,1.5,15.4-3.6,16.9-11.4S469.8,97,462,95.5z M481.9,119l37.8,7.4l5.5-28.3l-37.8-7.4L481.9,119z M462.9,90.8
			c10.4,2,17.2,12.1,15.2,22.6l4.6-23.6L445,82.4l-4.6,23.6C442.4,95.6,452.5,88.7,462.9,90.8z M540.3,96l28.3,5.5l2.3-11.8
			c0.7-4.1-1.8-7.7-5.5-8.4c0,0-0.1,0-0.1,0L544,77.1L540.3,96z M478.9,84.1l56.6,11l0.9-4.7l-56.6-11L478.9,84.1z M445.9,77.6
			l28.3,5.5l3.7-18.9l-21.2-4.1c-4.2-0.7-7.8,1.8-8.4,5.7L445.9,77.6z M480.8,74.6l56.6,11l1.8-9.4l-56.6-11L480.8,74.6z
			 M493.3,47.7c-0.6-0.1-1.2,0-1.7,0.3c-0.5,0.3-0.9,0.8-1,1.5l-2.3,11.9l47.2,9.2l2.3-11.8c0.1-0.7,0-1.3-0.3-1.8
			c-0.3-0.5-0.8-0.9-1.5-1L493.3,47.7C493.3,47.7,493.3,47.7,493.3,47.7z M542.8,133.3c-3.9-0.8-6.5-4.6-5.7-8.5
			c0.8-3.9,4.6-6.5,8.5-5.7c3.9,0.8,6.5,4.6,5.7,8.5C550.5,131.5,546.7,134,542.8,133.3z M544.7,123.8c-1.3-0.3-2.6,0.6-2.8,1.9
			s0.6,2.6,1.9,2.8c1.3,0.3,2.6-0.6,2.8-1.9S546,124.1,544.7,123.8z M457.9,116.7c-3.9-0.8-6.5-4.6-5.7-8.5c0.8-3.9,4.6-6.5,8.5-5.7
			c3.9,0.8,6.5,4.6,5.7,8.5C465.6,114.9,461.8,117.5,457.9,116.7z M459.7,107.3c-1.3-0.3-2.6,0.6-2.8,1.9c-0.3,1.3,0.6,2.6,1.9,2.8
			c1.3,0.3,2.6-0.6,2.8-1.9C461.9,108.8,461,107.5,459.7,107.3z M515.9,120.7l-28.3-5.5l3.7-18.9l28.3,5.5L515.9,120.7z
			 M493.2,111.4l18.9,3.7l1.8-9.4l-18.9-3.7L493.2,111.4z"/>
	</g>
</g>
<g>
	<circle class="st4" cx="287.9" cy="82.7" r="5.8"/>
	<g>
		<circle class="st4" cx="282.4" cy="79.9" r="52"/>
		<g class="st5">
			<path d="M313.2,79.9c0-17-13.8-30.8-30.8-30.8c-17,0-30.8,13.8-30.8,30.8s13.8,30.8,30.8,30.8l0,0
				C299.4,110.7,313.2,96.9,313.2,79.9z"/>
		</g>
		<path class="st1" d="M303.6,79.9c0-11.7-9.5-21.2-21.2-21.2s-21.2,9.5-21.2,21.2s9.5,21.2,21.2,21.2
			C294.1,101.1,303.6,91.6,303.6,79.9z"/>
		<g id="stroke_lights" class="st5">
			<path class="st3" d="M282.4,122.3c-23.4,0-42.3-19-42.3-42.3c0-1.1,0.9-1.9,2-1.9c1,0,1.8,0.9,1.9,1.9
				c0,21.2,17.2,38.5,38.5,38.5c1.1,0,1.9,0.8,2,1.9c0,1.1-0.8,1.9-1.9,2C282.5,122.3,282.5,122.3,282.4,122.3L282.4,122.3z
				 M310.4,105.4c-1.1,0-1.9-0.9-1.9-1.9c0-0.5,0.2-0.9,0.5-1.2c2.1-2.5,3.8-5.2,5.2-8.2c0.4-1,1.5-1.4,2.5-1c1,0.4,1.4,1.5,1,2.5
				c0,0,0,0.1,0,0.1c-1.5,3.3-3.4,6.4-5.7,9.1C311.5,105.2,310.9,105.5,310.4,105.4z M319,81.9c-1.1,0-1.9-0.9-1.9-1.9c0,0,0,0,0,0
				c0-19.1-15.5-34.6-34.6-34.6c-1.1,0-1.9-0.8-2-1.9c0-1.1,0.8-1.9,1.9-2c0,0,0.1,0,0.1,0c21.2,0,38.5,17.2,38.5,38.5
				C320.9,81,320.1,81.9,319,81.9C319,81.9,319,81.9,319,81.9z"/>
		</g>
		<g id="stroke-3">
			<path d="M282.4,133.8c-29.8,0-53.9-24.1-53.9-53.9s24.1-53.9,53.9-53.9s53.9,24.1,53.9,53.9C336.3,109.7,312.2,133.8,282.4,133.8
				z M282.4,29.9c-27.6,0-50,22.4-50,50s22.4,50,50,50s50-22.4,50-50l0,0C332.5,52.3,310.1,29.9,282.4,29.9z M282.4,103
				c-12.8,0-23.1-10.3-23.1-23.1s10.3-23.1,23.1-23.1s23.1,10.3,23.1,23.1c0,0,0,0,0,0C305.5,92.7,295.2,103,282.4,103L282.4,103z
				 M282.4,60.7c-10.6,0-19.2,8.6-19.2,19.2s8.6,19.2,19.2,19.2c10.6,0,19.2-8.6,19.2-19.2C301.7,69.3,293.1,60.7,282.4,60.7
				L282.4,60.7z M282.4,87.6c-4.3,0-7.7-3.4-7.7-7.7c0-4.3,3.4-7.7,7.7-7.7c4.3,0,7.7,3.4,7.7,7.7C290.1,84.2,286.7,87.6,282.4,87.6
				L282.4,87.6z M282.4,76.1c-2.1,0-3.8,1.7-3.8,3.8s1.7,3.8,3.8,3.8s3.8-1.7,3.8-3.8c0,0,0,0,0,0C286.3,77.8,284.6,76.1,282.4,76.1
				L282.4,76.1z"/>
		</g>
	</g>
</g>
<title>Tekengebied 1</title>
<g>
	<path class="st1" d="M336.1,69.5c0,0,3.9-9.6,13.5-5.7l115.1,46.9c0,0,9.6,3.9,5.7,13.5l-23.4,57.5c0,0-3.9,9.6-13.5,5.7
		l-115.1-46.9c0,0-9.6-3.9-5.7-13.5L336.1,69.5z"/>
	<g>
		
			<rect x="362.8" y="66.7" transform="matrix(0.3771 -0.9262 0.9262 0.3771 124.6555 441.3148)" class="st3" width="55.3" height="122.6"/>
		<path d="M344.7,80.4l112,45.6l-20.2,49.6l-112-45.6L344.7,80.4 M343.7,78.2l-21.5,52.7l115.1,46.9l21.5-52.7L343.7,78.2
			L343.7,78.2z"/>
	</g>
	<g class="st6">
		<path class="st3" d="M345.2,81.6l14.4,5.9L342,130.6l-14.4-5.9L345.2,81.6z M361.2,138.4l24,9.8l17.6-43.2l-24-9.8L361.2,138.4z
			 M404.3,156l19.2,7.8l17.6-43.2l-19.2-7.8L404.3,156z"/>
	</g>
	<g class="st7">
		
			<rect x="377.4" y="88.7" transform="matrix(0.3773 -0.9261 0.9261 0.3773 97.7738 446.9866)" class="st1" width="7.8" height="124.3"/>
	</g>
	<g id="base">
		<path d="M432.5,189.8l-115.1-46.9c-4.1-1.7-11-7.4-7.1-16.9l23.4-57.5c1.7-4.1,7.4-11,16.9-7.1l115.1,46.9
			c4.1,1.7,11,7.4,7.1,16.9l-23.4,57.5C447.6,186.9,441.9,193.7,432.5,189.8z M338.5,70.5L315.1,128c-1.7,3.7-0.1,8.1,3.5,9.8
			c0.2,0.1,0.5,0.2,0.7,0.3L434.4,185c3.7,1.7,8.1,0.1,9.8-3.5c0.1-0.2,0.2-0.5,0.3-0.7l23.4-57.5c1.7-3.7,0.2-8.1-3.5-9.8
			c-0.2-0.1-0.5-0.2-0.7-0.3L348.6,66.2c-3.7-1.7-8.1-0.2-9.8,3.5C338.7,70,338.6,70.2,338.5,70.5z M438.8,181.2l-119.9-48.8
			l23.4-57.5l119.9,48.8L438.8,181.2z M325.6,129.5l110.3,44.9l19.5-48L345.2,81.6L325.6,129.5z"/>
	</g>
	<g id="key">
		<path d="M436.1,146.6l-9.6-3.9l9.8-24l9.6,3.9L436.1,146.6z M416.9,138.8l-9.6-3.9l9.8-24l9.6,3.9L416.9,138.8z M397.7,130.9
			l-9.6-3.9l9.8-24l9.6,3.9L397.7,130.9z M373.8,121.2l-9.6-3.9l9.8-24l9.6,3.9L373.8,121.2z M354.6,113.4l-9.6-3.9l9.8-24l9.6,3.9
			L354.6,113.4z"/>
	</g>
</g>
<g>
	<path class="st8" d="M207.7,176.2c-27.3,3.4-49.5-0.3-50.5-8.4l-1-8.3l3.2,2c7.7,4.8,26.6,6.3,46.9,3.8
		c20.4-2.5,38.3-8.6,44.6-15.2l2.6-2.7l1,8.3C255.6,163.8,235,172.8,207.7,176.2z"/>
	<path class="st0" d="M206.4,165.4c-23.9,3-45.2,0.3-49.6-6.1l-0.6-0.9l0.4-0.9c1.4-3.3,2.6-6.7,3.6-10.1c2.5-8.4,5.2-17.1,12.4-18
		c7.4-0.9,11.8,5.9,16.1,12.5c4.6,7.1,8.9,13.7,16.3,12.7c7.4-0.9,9.9-8.3,12.6-16.1c2.6-7.7,5.3-15.4,12.7-16.3
		c7.2-0.9,11.9,6.9,16.4,14.4c1.8,3.1,3.8,6.1,5.9,9l0.6,0.8l-0.3,1C250.3,154.7,230.7,162.3,206.4,165.4z"/>
	<path class="st2" d="M205,154.5c-7.4,0.9-11.9-5.9-16.1-12.5c-4.6-7.1-8.9-13.7-16.3-12.7c-7.2,0.9-9.9,9.6-12.4,18
		c-0.4,1.5-0.9,3.1-1.4,4.6l-3.5-0.4l-4.8-38.9l3.2,2c7.7,4.8,26.6,6.3,46.9,3.8s38.3-8.6,44.6-15.2l2.6-2.7l4.8,38.9l-3.3,1.2
		c-0.9-1.3-1.7-2.7-2.5-4.1c-4.8-7.9-9.2-15.3-16.4-14.4c-7.4,0.9-9.9,8.3-12.6,16.1C215,145.9,212.4,153.6,205,154.5z"/>
	<path class="st1" d="M200.5,118.5c-27.3,3.4-49.5-0.3-50.5-8.4c-1-8.1,19.6-17.1,46.9-20.5s49.5,0.3,50.5,8.4
		S227.8,115.1,200.5,118.5z"/>
	<g class="st5">
		<path class="st8" d="M199.4,109.5c-27.5,3.4-42.2-1-44.3-3.6c1.4-3,14.6-11,42.1-14.4c27.5-3.4,42.2,1,44.3,3.6
			C240.1,98.1,226.9,106.1,199.4,109.5z"/>
	</g>
	<g id="stroke">
		<path d="M207.9,178c-24.5,3.1-51.2,0.6-52.5-9.9l-7.2-57.7c-1.3-10.5,24-19.5,48.4-22.5s51.2-0.6,52.5,9.9l7.2,57.7
			C257.7,166,232.4,174.9,207.9,178z M158.5,163.1l0.6,4.5c0.7,6,20.8,10.2,48.4,6.8c27.6-3.4,46-12.5,45.3-18.5l-0.6-4.5
			c-7.2,7.5-26.7,13.4-45.6,15.7S167.3,168.6,158.5,163.1L158.5,163.1z M158.3,158.2c3.5,5.2,22.5,8.5,47.9,5.4s43-11,45.1-16.9
			c-2.2-2.9-4.3-6-6.1-9.1c-4.4-7.4-8.6-14.3-14.7-13.6c-6.3,0.8-8.6,7.7-11.1,15c-2.7,8-5.6,16.4-14.1,17.4
			c-8.6,1.1-13.3-6.3-18-13.4c-4.2-6.5-8.2-12.6-14.5-11.8c-6,0.8-8.4,8.5-10.9,16.7C160.9,151.4,159.7,154.8,158.3,158.2
			L158.3,158.2z M172.4,127.5c8.6-1.1,13.3,6.3,18,13.4c4.2,6.5,8.2,12.6,14.5,11.8c6.3-0.8,8.6-7.7,11.1-15
			c2.7-8,5.6-16.4,14.1-17.4c8.4-1,13.4,7.3,18.2,15.3c0.8,1.4,1.7,2.7,2.5,4.1l-4.4-35.1c-7.2,7.5-26.7,13.4-45.6,15.7
			s-39.3,1.4-48.1-4l4.4,35.1c0.5-1.5,1-3,1.4-4.6C161.2,137.8,164,128.5,172.4,127.5L172.4,127.5z M197.2,91.4
			c-27.6,3.4-46,12.5-45.3,18.5s20.8,10.2,48.4,6.8s46-12.5,45.3-18.5C244.9,92.3,224.8,88,197.2,91.4z"/>
	</g>
</g>
<g>
	<path class="st8" d="M40.8,132.2c-12.4-3.4-21.1-18.4-21.2-18.6c-7-13.2-10.1-31.2,4-39.3c6.6-3.8,11.6-3.4,16-3
		c3.6,0.3,7,0.5,10.5-1.5c1.9-1.1,3.6-2.7,4.7-4.6c1.7-2.5,3.8-5.5,10.9-9.6c3.6-2.2,8-2.9,12.1-1.8c4.3,1.2,10.8,5,17.5,16.6
		c2.7,4.5,4.6,9.4,5.7,14.6c1.5,8.4-1.2,14.6-8,18.4c-7,4-10.7,4.3-13.7,4.5c-2.3,0-4.5,0.7-6.5,1.8c-3.6,2-5,5-6.6,8.1
		c-2,4.1-4.2,8.6-10.8,12.3C51.1,132.9,45.8,133.6,40.8,132.2z"/>
	<path class="st1" d="M59.9,101.8c-7.3-1.9-11.7-9.4-9.7-16.7c0.9-3.6,3.3-6.6,6.5-8.4c3.2-1.8,6.9-2.3,10.4-1.4
		c7.3,2,11.7,9.6,9.6,17c-1,3.5-3.3,6.5-6.4,8.3C67.1,102.3,63.4,102.8,59.9,101.8z"/>
	<path class="st1" d="M98.4,76.4c-0.9-2-1.9-4-3-6c-1.1-2-2.3-3.8-3.7-5.6l-1.5-2l28.5-16.3l9.1,16L99.4,78.7L98.4,76.4z"/>
	<path class="st8" d="M130.6,64.6c-1.2-0.3-2.2-1.1-2.8-2.1l-9.1-16c-1.2-2-0.6-4.7,1.3-6l0.3-0.2l18.4-5.2c1.2-0.4,2.4-0.5,3.6-0.2
		c1.1,0.3,2,1,2.6,2l4.5,8c1.1,1.9,0.5,4-1.7,6.2L134,64.2l-0.3,0.2C132.7,64.8,131.6,64.8,130.6,64.6z"/>
	<g id="stroke-2">
		<path d="M40.3,134.4c-10.3-2.8-18.6-12.7-22.6-19.6c-5.9-10.3-12.5-32.5,4.8-42.3c7.2-4.1,12.8-3.7,17.2-3.3
			c3.5,0.3,6.2,0.5,9.2-1.2c1.7-1,3.1-2.4,4.1-4c1.9-2.6,4.2-5.9,11.6-10.2c7.5-4.3,15.3-3.4,22.5,2.7c1.3,1.1,2.5,2.3,3.6,3.5
			L116,45.5c-0.5-2.9,0.8-5.7,3.3-7.2l0.5-0.2l18.2-5.1c3.8-1.2,7.1-0.2,8.8,2.7l4.6,8c1.1,2,1.7,5.2-2.1,9l0,0l-14.1,13.4
			c-2.5,1.4-5.7,1.1-7.9-0.8L102,79.7c0.5,1.6,0.9,3.2,1.2,4.9c1.6,9.3-1.5,16.5-9.1,20.8c-7.4,4.3-11.4,4.6-14.7,4.8
			c-1.9,0-3.9,0.5-5.5,1.4c-3,1.7-4.2,4.2-5.7,7.3c-2,4-4.4,9.1-11.6,13.2l0,0C51.7,135.1,45.8,135.9,40.3,134.4z M77.3,55.9
			c-3.6-0.9-7.3-0.3-10.5,1.6c-6.6,3.8-8.5,6.5-10.2,8.9c-1.4,2.2-3.3,4.1-5.5,5.4c-4.2,2.4-8,2.1-11.8,1.8
			c-4.3-0.3-8.7-0.7-14.7,2.8C7,86.5,21,111.5,21.6,112.6s15.1,25.8,32.8,15.7l0,0c6-3.4,7.9-7.4,9.8-11.3c1.6-3.4,3.4-6.9,7.5-9.2
			c2.3-1.3,4.8-2,7.4-2c2.9-0.2,6.2-0.5,12.8-4.2c5.9-3.4,8.2-8.7,6.9-16.1c-1-4.9-2.9-9.6-5.4-13.9c-2.4-4.4-5.5-8.4-9.2-11.7
			C82.2,58,79.9,56.7,77.3,55.9z M93.5,63.4c1.4,1.9,2.6,3.8,3.7,5.9c1.2,2,2.2,4.1,3.2,6.2l8.4-4.8l-3.4-6c-0.5-1.1-0.1-2.5,1-3
			c1-0.5,2.2-0.2,2.9,0.8l3.4,6l4.1-2.3l-3.4-6c-0.5-1.1-0.1-2.5,1-3c1-0.5,2.2-0.2,2.9,0.8l3.4,6l4.1-2.3l-6.9-12.1L93.5,63.4z
			 M121.3,42.3c-1,0.7-1.3,2-0.7,3.1l9.1,15.9c0.6,1,1.9,1.4,3,1l13.4-12.9c2.1-2.1,1.6-3.1,1.3-3.6l-4.6-8
			c-0.2-0.4-0.9-1.6-3.6-0.7L121.3,42.3z M147.7,51L147.7,51z M52.1,118.1c-0.6-0.2-1.1-0.5-1.4-1.1L33.6,87.2
			c-0.7-1-0.4-2.4,0.7-3.1c1-0.7,2.4-0.4,3.1,0.7c0,0.1,0.1,0.1,0.1,0.2l17.1,29.9c0.6,1.1,0.2,2.4-0.8,3.1
			C53.3,118.2,52.6,118.3,52.1,118.1L52.1,118.1z M59.3,104.1c-8.5-2.3-13.5-11.1-11.2-19.6c2.3-8.5,11.1-13.5,19.6-11.2
			c8.5,2.3,13.5,11.1,11.2,19.6c-1.1,4.1-3.8,7.6-7.5,9.7l0,0C67.7,104.6,63.4,105.2,59.3,104.1z M66.5,77.5
			c-6.1-1.7-12.5,2-14.1,8.1c-1.7,6.1,2,12.5,8.1,14.1c6.1,1.7,12.5-2,14.1-8.1c0.8-2.9,0.4-6.1-1.1-8.7
			C72,80.3,69.5,78.3,66.5,77.5L66.5,77.5z M70.3,100.6L70.3,100.6z"/>
	</g>
</g>
<path class="st9" d="M11,40.7c-1.1-0.1-2-1-1.9-2.1c0,0,0,0,0,0l0.1-2l-2-0.1c-1.1-0.1-2-1-1.9-2.1s1-2,2.1-1.9c0,0,0,0,0.1,0l2,0.1
	l0.1-2c0.1-1.1,1-2,2.1-1.9c1.1,0.1,2,1,1.9,2.1c0,0,0,0,0,0.1l-0.1,2l2,0.1c1.1,0.1,1.9,1.1,1.9,2.2c-0.1,1.1-1,1.9-2.1,1.9l-2-0.1
	l-0.1,2C13.1,39.9,12.2,40.8,11,40.7C11,40.7,11,40.7,11,40.7z"/>
<path class="st9" d="M521.4,42.7c-0.8-0.4-1-1.3-0.7-2.1c0,0,0,0,0,0l0.7-1.4l-1.4-0.7c-0.8-0.4-1-1.3-0.7-2.1s1.3-1,2.1-0.7
	c0,0,0,0,0,0l1.4,0.7l0.7-1.4c0.4-0.7,1.3-1,2.1-0.6c0.7,0.4,1,1.3,0.7,2.1l-0.7,1.4l1.4,0.7c0.7,0.4,1,1.3,0.6,2.1
	c-0.4,0.7-1.3,1-2.1,0.7l-1.4-0.7l-0.7,1.4C523.1,42.8,522.2,43.1,521.4,42.7C521.4,42.7,521.4,42.7,521.4,42.7z"/>
<path class="st9" d="M413,42.8c-0.8,0-1.5-0.8-1.5-1.6c0,0,0,0,0,0l0.1-1.5l-1.5-0.1c-0.8,0-1.5-0.8-1.5-1.6c0-0.8,0.7-1.5,1.6-1.5
	l1.5,0.1l0.1-1.5c0-0.8,0.7-1.5,1.6-1.5c0.8,0,1.5,0.7,1.5,1.6c0,0,0,0,0,0l-0.1,1.5l1.5,0.1c0.8,0,1.5,0.8,1.5,1.6
	c0,0.8-0.7,1.5-1.6,1.5l-1.5-0.1l-0.1,1.5C414.6,42.2,413.8,42.9,413,42.8C413,42.8,413,42.8,413,42.8z"/>
<path class="st9" d="M37.6,152.3c0.7,0.5,0.7,1.5,0.2,2.2c0,0,0,0,0,0l-1,1.2l1.2,1c0.6,0.5,0.7,1.5,0.2,2.2
	c-0.5,0.6-1.5,0.7-2.1,0.2l-1.2-1l-1,1.2c-0.5,0.7-1.5,0.7-2.2,0.2c-0.7-0.5-0.7-1.5-0.2-2.2c0,0,0,0,0,0l1-1.2l-1.2-1
	c-0.6-0.5-0.7-1.5-0.2-2.2c0.5-0.6,1.5-0.7,2.1-0.2l1.2,1l1-1.2C36,151.8,36.9,151.7,37.6,152.3C37.6,152.3,37.6,152.3,37.6,152.3z"
	/>
<path class="st9" d="M105.6,156c0.7,0.5,0.7,1.5,0.2,2.2c0,0,0,0,0,0l-1,1.2l1.2,1c0.6,0.5,0.7,1.5,0.2,2.2
	c-0.5,0.6-1.5,0.7-2.1,0.2l-1.2-1l-1,1.2c-0.5,0.7-1.5,0.7-2.2,0.2c-0.7-0.5-0.7-1.5-0.2-2.2c0,0,0,0,0,0l1-1.2l-1.2-1
	c-0.6-0.5-0.7-1.5-0.2-2.2c0.5-0.6,1.5-0.7,2.1-0.2l1.2,1l1-1.2C104,155.5,105,155.4,105.6,156C105.6,156,105.6,156,105.6,156z"/>
<path class="st9" d="M637.6,132.3c0.7,0.5,0.7,1.5,0.2,2.2c0,0,0,0,0,0l-1,1.2l1.2,1c0.6,0.5,0.7,1.5,0.2,2.2
	c-0.5,0.6-1.5,0.7-2.1,0.2l-1.2-1l-1,1.2c-0.5,0.7-1.5,0.7-2.2,0.2c-0.7-0.5-0.7-1.5-0.2-2.2c0,0,0,0,0,0l1-1.2l-1.2-1
	c-0.6-0.5-0.7-1.5-0.2-2.2c0.5-0.6,1.5-0.7,2.1-0.2l1.2,1l1-1.2C636,131.8,637,131.7,637.6,132.3
	C637.6,132.3,637.6,132.3,637.6,132.3z"/>
<path class="st9" d="M586.6,142.3c0.7,0.5,0.7,1.5,0.2,2.2c0,0,0,0,0,0l-1,1.2l1.2,1c0.6,0.5,0.7,1.5,0.2,2.2
	c-0.5,0.6-1.5,0.7-2.1,0.2l-1.2-1l-1,1.2c-0.5,0.7-1.5,0.7-2.2,0.2c-0.7-0.5-0.7-1.5-0.2-2.2c0,0,0,0,0,0l1-1.2l-1.2-1
	c-0.6-0.5-0.7-1.5-0.2-2.2c0.5-0.6,1.5-0.7,2.1-0.2l1.2,1l1-1.2C585,141.8,586,141.7,586.6,142.3
	C586.6,142.3,586.6,142.3,586.6,142.3z"/>
<path class="st9" d="M442.8,26.9c-0.8-0.1-1.4-0.9-1.3-1.7c0,0,0,0,0,0l0.2-1.5l-1.5-0.2c-0.8-0.1-1.5-0.8-1.4-1.7
	c0.1-0.8,0.8-1.5,1.7-1.4c0,0,0,0,0,0l1.5,0.2l0.2-1.5c0.1-0.8,0.8-1.5,1.7-1.4c0.8,0.1,1.5,0.8,1.4,1.7c0,0,0,0,0,0L445,21l1.5,0.2
	c0.8,0.1,1.4,0.9,1.3,1.7c-0.1,0.8-0.8,1.4-1.7,1.3l-1.5-0.2l-0.2,1.5C444.4,26.4,443.6,27,442.8,26.9
	C442.8,26.9,442.8,26.9,442.8,26.9z"/>
<path class="st9" d="M515.9,185.6c-1.4-0.2-2.4-1.4-2.3-2.9c0,0,0,0,0,0l0.3-2.6l-2.6-0.3c-1.4-0.1-2.5-1.4-2.3-2.8
	c0.1-1.4,1.4-2.5,2.8-2.3c0,0,0.1,0,0.1,0l2.6,0.3l0.3-2.6c0.1-1.4,1.4-2.5,2.8-2.3c1.4,0.1,2.5,1.4,2.3,2.8c0,0,0,0.1,0,0.1
	l-0.3,2.6l2.6,0.3c1.4,0.2,2.4,1.5,2.2,2.9c-0.2,1.4-1.4,2.4-2.8,2.2l-2.6-0.3l-0.3,2.6C518.6,184.7,517.3,185.7,515.9,185.6
	C515.9,185.6,515.9,185.6,515.9,185.6z"/>
<path class="st9" d="M255.8,136.9c-0.8-0.1-1.4-0.9-1.3-1.7c0,0,0,0,0,0l0.2-1.5l-1.5-0.2c-0.8-0.1-1.5-0.8-1.4-1.7
	c0.1-0.8,0.8-1.5,1.7-1.4c0,0,0,0,0,0l1.5,0.2l0.2-1.5c0.1-0.8,0.8-1.5,1.7-1.4c0.8,0.1,1.5,0.8,1.4,1.7c0,0,0,0,0,0L258,131
	l1.5,0.2c0.8,0.1,1.4,0.9,1.3,1.7c-0.1,0.8-0.8,1.4-1.7,1.3l-1.5-0.2l-0.2,1.5C257.4,136.4,256.6,137,255.8,136.9
	C255.8,136.9,255.8,136.9,255.8,136.9z"/>
</svg>
